<?xml version="1.0" encoding="UTF-8" standalone="no" ?>
<!DOCTYPE svg PUBLIC "-//W3C//DTD SVG 1.1//EN" "http://www.w3.org/Graphics/SVG/1.1/DTD/svg11.dtd">
<svg xmlns="http://www.w3.org/2000/svg" xmlns:xlink="http://www.w3.org/1999/xlink" version="1.1" width="1080" height="1080" viewBox="0 0 1080 1080" xml:space="preserve">
<desc>Created with Fabric.js 5.2.4</desc>
<defs>
</defs>
<rect x="0" y="0" width="100%" height="100%" fill="transparent"></rect>
<g transform="matrix(1 0 0 1 540 540)" id="11645091-8f3b-4e8c-b492-c9c79ecbd97f"  >
<rect style="stroke: none; stroke-width: 1; stroke-dasharray: none; stroke-linecap: butt; stroke-dashoffset: 0; stroke-linejoin: miter; stroke-miterlimit: 4; fill: rgb(255,255,255); fill-rule: nonzero; opacity: 1; visibility: hidden;" vector-effect="non-scaling-stroke"  x="-540" y="-540" rx="0" ry="0" width="1080" height="1080" />
</g>
<g transform="matrix(1 0 0 1 540 540)" id="5be467fa-889d-46c2-bd6c-8c5287beaf16"  >
</g>
<g transform="matrix(4.11 0 0 4.11 539.62 562.4)"  >
<g style="" vector-effect="non-scaling-stroke"   >
		<g transform="matrix(1 0 0 1 -102.13 31.81)"  >
<path style="stroke: none; stroke-width: 1; stroke-dasharray: none; stroke-linecap: butt; stroke-dashoffset: 0; stroke-linejoin: miter; stroke-miterlimit: 4; fill: rgb(249,249,249); fill-rule: evenodd; opacity: 1;" vector-effect="non-scaling-stroke"  transform=" translate(-25.83, -81.33)" d="M 33.326132 94.9993909 L 18.339736 89.6227411 L 18.339736 67.6567716 L 33.326132 72.7631269 L 33.326132 94.9993909" stroke-linecap="round" />
</g>
		<g transform="matrix(1 0 0 1 -84.39 31.81)"  >
<path style="stroke: none; stroke-width: 1; stroke-dasharray: none; stroke-linecap: butt; stroke-dashoffset: 0; stroke-linejoin: miter; stroke-miterlimit: 4; fill: rgb(249,249,249); fill-rule: evenodd; opacity: 1;" vector-effect="non-scaling-stroke"  transform=" translate(-43.57, -81.33)" d="M 36.0745584 94.9993909 L 51.0609543 89.6227411 L 51.0609543 67.6567716 L 36.0745584 72.7631269 L 36.0745584 94.9993909" stroke-linecap="round" />
</g>
		<g transform="matrix(1 0 0 1 -93.47 16.88)"  >
<path style="stroke: none; stroke-width: 1; stroke-dasharray: none; stroke-linecap: butt; stroke-dashoffset: 0; stroke-linejoin: miter; stroke-miterlimit: 4; fill: rgb(249,249,249); fill-rule: evenodd; opacity: 1;" vector-effect="non-scaling-stroke"  transform=" translate(-34.5, -66.4)" d="M 19.8796345 66.0142132 L 35.0473096 61.744731 L 49.111066 66.2793096 L 35.0473096 71.0536447 L 19.8796345 66.0142132" stroke-linecap="round" />
</g>
		<g transform="matrix(1 0 0 1 -119.97 1.12)"  >
<path style="stroke: none; stroke-width: 1; stroke-dasharray: none; stroke-linecap: butt; stroke-dashoffset: 0; stroke-linejoin: miter; stroke-miterlimit: 4; fill: rgb(249,249,249); fill-rule: evenodd; opacity: 1;" vector-effect="non-scaling-stroke"  transform=" translate(-7.99, -50.64)" d="M 15.4841015 64.3125279 L 0.497705584 58.9365279 L 0.497705584 36.9699086 L 15.4841015 42.0756142 L 15.4841015 64.3125279" stroke-linecap="round" />
</g>
		<g transform="matrix(1 0 0 1 -102.24 1.12)"  >
<path style="stroke: none; stroke-width: 1; stroke-dasharray: none; stroke-linecap: butt; stroke-dashoffset: 0; stroke-linejoin: miter; stroke-miterlimit: 4; fill: rgb(249,249,249); fill-rule: evenodd; opacity: 1;" vector-effect="non-scaling-stroke"  transform=" translate(-25.73, -50.64)" d="M 18.2325279 64.3125279 L 33.2195736 58.9365279 L 33.2195736 36.9699086 L 18.2325279 42.0756142 L 18.2325279 64.3125279" stroke-linecap="round" />
</g>
		<g transform="matrix(1 0 0 1 -111.31 -13.81)"  >
<path style="stroke: none; stroke-width: 1; stroke-dasharray: none; stroke-linecap: butt; stroke-dashoffset: 0; stroke-linejoin: miter; stroke-miterlimit: 4; fill: rgb(249,249,249); fill-rule: evenodd; opacity: 1;" vector-effect="non-scaling-stroke"  transform=" translate(-16.65, -35.71)" d="M 2.03760406 35.3260508 L 17.2059289 31.0572183 L 31.2696853 35.591797 L 17.2059289 40.3667817 L 2.03760406 35.3260508" stroke-linecap="round" />
</g>
		<g transform="matrix(1 0 0 1 -85 1.12)"  >
<path style="stroke: none; stroke-width: 1; stroke-dasharray: none; stroke-linecap: butt; stroke-dashoffset: 0; stroke-linejoin: miter; stroke-miterlimit: 4; fill: rgb(249,249,249); fill-rule: evenodd; opacity: 1;" vector-effect="non-scaling-stroke"  transform=" translate(-42.96, -50.64)" d="M 50.4534416 64.3125279 L 35.4663959 58.9365279 L 35.4663959 36.9699086 L 50.4534416 42.0756142 L 50.4534416 64.3125279" stroke-linecap="round" />
</g>
		<g transform="matrix(1 0 0 1 -67.27 1.12)"  >
<path style="stroke: none; stroke-width: 1; stroke-dasharray: none; stroke-linecap: butt; stroke-dashoffset: 0; stroke-linejoin: miter; stroke-miterlimit: 4; fill: rgb(249,249,249); fill-rule: evenodd; opacity: 1;" vector-effect="non-scaling-stroke"  transform=" translate(-60.7, -50.64)" d="M 53.201868 64.3125279 L 68.1889137 58.9365279 L 68.1889137 36.9699086 L 53.201868 42.0756142 L 53.201868 64.3125279" stroke-linecap="round" />
</g>
		<g transform="matrix(1 0 0 1 -76.34 -13.81)"  >
<path style="stroke: none; stroke-width: 1; stroke-dasharray: none; stroke-linecap: butt; stroke-dashoffset: 0; stroke-linejoin: miter; stroke-miterlimit: 4; fill: rgb(249,249,249); fill-rule: evenodd; opacity: 1;" vector-effect="non-scaling-stroke"  transform=" translate(-51.62, -35.71)" d="M 37.0075939 35.3260508 L 52.1746193 31.0572183 L 66.2383756 35.591797 L 52.1746193 40.3667817 L 37.0075939 35.3260508" stroke-linecap="round" />
</g>
		<g transform="matrix(1 0 0 1 -67.16 -29.56)"  >
<path style="stroke: none; stroke-width: 1; stroke-dasharray: none; stroke-linecap: butt; stroke-dashoffset: 0; stroke-linejoin: miter; stroke-miterlimit: 4; fill: rgb(249,249,249); fill-rule: evenodd; opacity: 1;" vector-effect="non-scaling-stroke"  transform=" translate(-60.8, -19.95)" d="M 68.2954721 33.6243655 L 53.3084264 28.249665 L 53.3084264 6.28304569 L 68.2954721 11.3881015 L 68.2954721 33.6243655" stroke-linecap="round" />
</g>
		<g transform="matrix(1 0 0 1 -49.42 -29.56)"  >
<path style="stroke: none; stroke-width: 1; stroke-dasharray: none; stroke-linecap: butt; stroke-dashoffset: 0; stroke-linejoin: miter; stroke-miterlimit: 4; fill: rgb(249,249,249); fill-rule: evenodd; opacity: 1;" vector-effect="non-scaling-stroke"  transform=" translate(-78.54, -19.95)" d="M 71.0438985 33.6243655 L 86.0309442 28.249665 L 86.0309442 6.28304569 L 71.0438985 11.3881015 L 71.0438985 33.6243655" stroke-linecap="round" />
</g>
		<g transform="matrix(1 0 0 1 -58.5 -44.49)"  >
<path style="stroke: none; stroke-width: 1; stroke-dasharray: none; stroke-linecap: butt; stroke-dashoffset: 0; stroke-linejoin: miter; stroke-miterlimit: 4; fill: rgb(249,249,249); fill-rule: evenodd; opacity: 1;" vector-effect="non-scaling-stroke"  transform=" translate(-69.46, -5.02)" d="M 54.8489746 4.63918782 L 70.0166497 0.369705584 L 84.0804061 4.90428426 L 70.0166497 9.67926904 L 54.8489746 4.63918782" stroke-linecap="round" />
</g>
		<g transform="matrix(1 0 0 1 -32.19 -29.56)"  >
<path style="stroke: none; stroke-width: 1; stroke-dasharray: none; stroke-linecap: butt; stroke-dashoffset: 0; stroke-linejoin: miter; stroke-miterlimit: 4; fill: rgb(249,249,249); fill-rule: evenodd; opacity: 1;" vector-effect="non-scaling-stroke"  transform=" translate(-95.77, -19.95)" d="M 103.264812 33.6243655 L 88.2777665 28.249665 L 88.2777665 6.28304569 L 103.264812 11.3881015 L 103.264812 33.6243655" stroke-linecap="round" />
</g>
		<g transform="matrix(1 0 0 1 -14.46 -29.56)"  >
<path style="stroke: none; stroke-width: 1; stroke-dasharray: none; stroke-linecap: butt; stroke-dashoffset: 0; stroke-linejoin: miter; stroke-miterlimit: 4; fill: rgb(249,249,249); fill-rule: evenodd; opacity: 1;" vector-effect="non-scaling-stroke"  transform=" translate(-113.51, -19.95)" d="M 106.013239 33.6243655 L 121.000284 28.249665 L 121.000284 6.28304569 L 106.013239 11.3881015 L 106.013239 33.6243655" stroke-linecap="round" />
</g>
		<g transform="matrix(1 0 0 1 -23.53 -44.49)"  >
<path style="stroke: none; stroke-width: 1; stroke-dasharray: none; stroke-linecap: butt; stroke-dashoffset: 0; stroke-linejoin: miter; stroke-miterlimit: 4; fill: rgb(249,249,249); fill-rule: evenodd; opacity: 1;" vector-effect="non-scaling-stroke"  transform=" translate(-104.43, -5.02)" d="M 89.8183147 4.63918782 L 104.98599 0.369705584 L 119.049096 4.90428426 L 104.98599 9.67926904 L 89.8183147 4.63918782" stroke-linecap="round" />
</g>
		<g transform="matrix(1 0 0 1 -43.42 39.92)"  >
<path style="stroke: none; stroke-width: 1; stroke-dasharray: none; stroke-linecap: butt; stroke-dashoffset: 0; stroke-linejoin: miter; stroke-miterlimit: 4; fill: rgb(249,249,249); fill-rule: evenodd; opacity: 1;" vector-effect="non-scaling-stroke"  transform=" translate(-84.54, -89.43)" d="M 95.6413401 80.6900305 L 90.6071066 98.178599 L 88.4187614 98.178599 L 84.4994924 85.1888731 L 80.9057462 98.178599 L 78.6751675 98.178599 L 73.4427614 80.6900305 L 76.1483046 80.6900305 L 79.959066 93.7226396 L 83.5872487 80.6900305 L 85.583269 80.6900305 L 89.5265787 93.7648731 L 93.4438985 80.6900305 L 95.6413401 80.6900305 L 95.6413401 80.6900305 Z" stroke-linecap="round" />
</g>
		<g transform="matrix(1 0 0 1 -43.42 39.92)"  >
<path style="stroke: rgb(0,0,0); stroke-width: 1; stroke-dasharray: none; stroke-linecap: butt; stroke-dashoffset: 0; stroke-linejoin: miter; stroke-miterlimit: 4; fill: rgb(249,249,249); fill-rule: evenodd; opacity: 1;" vector-effect="non-scaling-stroke"  transform=" translate(-84.54, -89.43)" d="M 95.6413401 80.6900305 L 90.6071066 98.178599 L 88.4187614 98.178599 L 84.4994924 85.1888731 L 80.9057462 98.178599 L 78.6751675 98.178599 L 73.4427614 80.6900305 L 76.1483046 80.6900305 L 79.959066 93.7226396 L 83.5872487 80.6900305 L 85.583269 80.6900305 L 89.5265787 93.7648731 L 93.4438985 80.6900305 L 95.6413401 80.6900305 L 95.6413401 80.6900305 Z" stroke-linecap="round" />
</g>
		<g transform="matrix(1 0 0 1 -23.42 39.92)"  >
<path style="stroke: none; stroke-width: 1; stroke-dasharray: none; stroke-linecap: butt; stroke-dashoffset: 0; stroke-linejoin: miter; stroke-miterlimit: 4; fill: rgb(249,249,249); fill-rule: evenodd; opacity: 1;" vector-effect="non-scaling-stroke"  transform=" translate(-104.54, -89.43)" d="M 109.566701 92.9617868 L 112.10136 93.4815838 C 111.640041 94.9772995 110.741442 96.2157157 109.405563 97.1948832 C 108.067736 98.1753503 106.49535 98.6652589 104.685807 98.6652589 C 102.300589 98.6652589 100.370843 97.8251371 98.895269 96.1429442 C 97.4203452 94.4620508 96.6828832 92.2574619 96.6828832 89.5304772 C 96.6828832 86.7450152 97.4495838 84.4949442 98.9816853 82.7789645 C 100.514437 81.0629848 102.438985 80.2046701 104.75598 80.2046701 C 107.038538 80.2046701 108.873421 80.9947614 110.261929 82.5749442 C 111.650437 84.1557766 112.362558 86.5189036 112.396995 89.6669239 L 99.7035533 89.6669239 C 99.7035533 92.3120406 100.255838 94.0949442 101.361706 95.019533 C 102.466924 95.9434721 103.636467 96.4047919 104.867736 96.4047919 C 107.091168 96.4047919 108.657056 95.2566904 109.566701 92.9617868 L 109.566701 92.9617868 Z M 109.419208 87.6397157 C 109.395817 86.6592487 109.23533 85.7879391 108.935147 85.0264365 C 108.635614 84.264934 108.128812 83.6158376 107.414741 83.0791472 C 106.70067 82.5431066 105.842355 82.2747614 104.840447 82.2747614 C 103.492873 82.2747614 102.34932 82.7594721 101.411086 83.7288934 C 100.472203 84.6983147 99.9459086 86.0010558 99.8302538 87.6397157 L 109.419208 87.6397157 L 109.419208 87.6397157 Z" stroke-linecap="round" />
</g>
		<g transform="matrix(1 0 0 1 -23.42 39.92)"  >
<path style="stroke: rgb(0,0,0); stroke-width: 1; stroke-dasharray: none; stroke-linecap: butt; stroke-dashoffset: 0; stroke-linejoin: miter; stroke-miterlimit: 4; fill: rgb(249,249,249); fill-rule: evenodd; opacity: 1;" vector-effect="non-scaling-stroke"  transform=" translate(-104.54, -89.43)" d="M 109.566701 92.9617868 L 112.10136 93.4815838 C 111.640041 94.9772995 110.741442 96.2157157 109.405563 97.1948832 C 108.067736 98.1753503 106.49535 98.6652589 104.685807 98.6652589 C 102.300589 98.6652589 100.370843 97.8251371 98.895269 96.1429442 C 97.4203452 94.4620508 96.6828832 92.2574619 96.6828832 89.5304772 C 96.6828832 86.7450152 97.4495838 84.4949442 98.9816853 82.7789645 C 100.514437 81.0629848 102.438985 80.2046701 104.75598 80.2046701 C 107.038538 80.2046701 108.873421 80.9947614 110.261929 82.5749442 C 111.650437 84.1557766 112.362558 86.5189036 112.396995 89.6669239 L 99.7035533 89.6669239 C 99.7035533 92.3120406 100.255838 94.0949442 101.361706 95.019533 C 102.466924 95.9434721 103.636467 96.4047919 104.867736 96.4047919 C 107.091168 96.4047919 108.657056 95.2566904 109.566701 92.9617868 L 109.566701 92.9617868 Z M 109.419208 87.6397157 C 109.395817 86.6592487 109.23533 85.7879391 108.935147 85.0264365 C 108.635614 84.264934 108.128812 83.6158376 107.414741 83.0791472 C 106.70067 82.5431066 105.842355 82.2747614 104.840447 82.2747614 C 103.492873 82.2747614 102.34932 82.7594721 101.411086 83.7288934 C 100.472203 84.6983147 99.9459086 86.0010558 99.8302538 87.6397157 L 109.419208 87.6397157 L 109.419208 87.6397157 Z" stroke-linecap="round" />
</g>
		<g transform="matrix(1 0 0 1 -4.52 37.1)"  >
<path style="stroke: none; stroke-width: 1; stroke-dasharray: none; stroke-linecap: butt; stroke-dashoffset: 0; stroke-linejoin: miter; stroke-miterlimit: 4; fill: rgb(249,249,249); fill-rule: evenodd; opacity: 1;" vector-effect="non-scaling-stroke"  transform=" translate(-123.44, -86.62)" d="M 117.286335 98.178599 L 115.976447 98.178599 L 115.976447 74.5655228 L 118.701482 74.5655228 L 118.701482 83.6054416 C 119.945096 81.3384772 121.659777 80.2046701 123.846822 80.2046701 C 125.84934 80.2046701 127.527635 80.9960609 128.880406 82.5801421 C 130.233178 84.1629239 130.909563 86.4623756 130.909563 89.4778477 C 130.909563 92.078132 130.244223 94.2586802 128.913543 96.0207919 C 127.582213 97.7835533 125.85064 98.6652589 123.718822 98.6652589 C 121.345299 98.6652589 119.52536 97.5379492 118.257706 95.2852792 L 117.286335 98.178599 L 117.286335 98.178599 Z M 118.701482 91.3224772 C 118.828183 93.1183756 119.378518 94.420467 120.353137 95.2313503 C 121.327107 96.0422335 122.356954 96.4476751 123.440081 96.4476751 C 124.824041 96.4476751 125.939655 95.8466599 126.786924 94.6452792 C 127.634843 93.4438985 128.057827 91.7980914 128.057827 89.7072081 C 128.057827 87.4558376 127.649137 85.6852792 126.830457 84.3968325 C 126.011127 83.1090355 124.875371 82.4644873 123.423188 82.4644873 C 122.281584 82.4644873 121.252386 82.9232081 120.335594 83.8393503 C 119.418802 84.7567919 118.874315 85.9419289 118.701482 87.3947614 L 118.701482 91.3224772 L 118.701482 91.3224772 Z" stroke-linecap="round" />
</g>
		<g transform="matrix(1 0 0 1 -4.52 37.1)"  >
<path style="stroke: rgb(0,0,0); stroke-width: 1; stroke-dasharray: none; stroke-linecap: butt; stroke-dashoffset: 0; stroke-linejoin: miter; stroke-miterlimit: 4; fill: rgb(249,249,249); fill-rule: evenodd; opacity: 1;" vector-effect="non-scaling-stroke"  transform=" translate(-123.44, -86.62)" d="M 117.286335 98.178599 L 115.976447 98.178599 L 115.976447 74.5655228 L 118.701482 74.5655228 L 118.701482 83.6054416 C 119.945096 81.3384772 121.659777 80.2046701 123.846822 80.2046701 C 125.84934 80.2046701 127.527635 80.9960609 128.880406 82.5801421 C 130.233178 84.1629239 130.909563 86.4623756 130.909563 89.4778477 C 130.909563 92.078132 130.244223 94.2586802 128.913543 96.0207919 C 127.582213 97.7835533 125.85064 98.6652589 123.718822 98.6652589 C 121.345299 98.6652589 119.52536 97.5379492 118.257706 95.2852792 L 117.286335 98.178599 L 117.286335 98.178599 Z M 118.701482 91.3224772 C 118.828183 93.1183756 119.378518 94.420467 120.353137 95.2313503 C 121.327107 96.0422335 122.356954 96.4476751 123.440081 96.4476751 C 124.824041 96.4476751 125.939655 95.8466599 126.786924 94.6452792 C 127.634843 93.4438985 128.057827 91.7980914 128.057827 89.7072081 C 128.057827 87.4558376 127.649137 85.6852792 126.830457 84.3968325 C 126.011127 83.1090355 124.875371 82.4644873 123.423188 82.4644873 C 122.281584 82.4644873 121.252386 82.9232081 120.335594 83.8393503 C 119.418802 84.7567919 118.874315 85.9419289 118.701482 87.3947614 L 118.701482 91.3224772 L 118.701482 91.3224772 Z" stroke-linecap="round" />
</g>
		<g transform="matrix(1 0 0 1 17.38 39.92)"  >
<path style="stroke: none; stroke-width: 1; stroke-dasharray: none; stroke-linecap: butt; stroke-dashoffset: 0; stroke-linejoin: miter; stroke-miterlimit: 4; fill: rgb(249,249,249); fill-rule: evenodd; opacity: 1;" vector-effect="non-scaling-stroke"  transform=" translate(-145.34, -89.43)" d="M 137.852751 93.6466193 L 140.450437 93.1099289 C 141.028061 95.3067208 142.852548 96.4047919 145.923898 96.4047919 C 147.054457 96.4047919 148.013482 96.1520406 148.798376 95.6452386 C 149.583919 95.1390863 149.976365 94.4250152 149.976365 93.5036751 C 149.976365 92.1346599 148.977056 91.2652995 146.978437 90.8968934 L 143.295025 90.1958173 C 141.851939 89.9190254 140.704487 89.3764873 139.850721 88.568203 C 138.997604 87.7599188 138.570721 86.6923858 138.570721 85.3643046 C 138.570721 83.8991269 139.152893 82.6724061 140.317888 81.6854416 C 141.482234 80.6984772 143.050721 80.2046701 145.022701 80.2046701 C 148.816569 80.2046701 151.158904 81.6880406 152.046457 84.6528325 L 149.55403 85.1888731 C 148.83866 83.3728325 147.370234 82.4644873 145.146152 82.4644873 C 144.038985 82.4644873 143.131289 82.6918985 142.421766 83.1454213 C 141.713543 83.5989442 141.358782 84.2330964 141.358782 85.0491777 C 141.358782 86.3343756 142.265178 87.1433096 144.07602 87.4772792 L 147.48069 88.1036345 C 151.045848 88.750132 152.827452 90.4797563 152.827452 93.2886091 C 152.827452 94.8954315 152.164061 96.1936244 150.836629 97.1812386 C 149.509848 98.170802 147.743838 98.6652589 145.538599 98.6652589 C 141.395817 98.6652589 138.833218 96.9915127 137.852751 93.6466193 L 137.852751 93.6466193 Z" stroke-linecap="round" />
</g>
		<g transform="matrix(1 0 0 1 17.38 39.92)"  >
<path style="stroke: rgb(0,0,0); stroke-width: 1; stroke-dasharray: none; stroke-linecap: butt; stroke-dashoffset: 0; stroke-linejoin: miter; stroke-miterlimit: 4; fill: rgb(249,249,249); fill-rule: evenodd; opacity: 1;" vector-effect="non-scaling-stroke"  transform=" translate(-145.34, -89.43)" d="M 137.852751 93.6466193 L 140.450437 93.1099289 C 141.028061 95.3067208 142.852548 96.4047919 145.923898 96.4047919 C 147.054457 96.4047919 148.013482 96.1520406 148.798376 95.6452386 C 149.583919 95.1390863 149.976365 94.4250152 149.976365 93.5036751 C 149.976365 92.1346599 148.977056 91.2652995 146.978437 90.8968934 L 143.295025 90.1958173 C 141.851939 89.9190254 140.704487 89.3764873 139.850721 88.568203 C 138.997604 87.7599188 138.570721 86.6923858 138.570721 85.3643046 C 138.570721 83.8991269 139.152893 82.6724061 140.317888 81.6854416 C 141.482234 80.6984772 143.050721 80.2046701 145.022701 80.2046701 C 148.816569 80.2046701 151.158904 81.6880406 152.046457 84.6528325 L 149.55403 85.1888731 C 148.83866 83.3728325 147.370234 82.4644873 145.146152 82.4644873 C 144.038985 82.4644873 143.131289 82.6918985 142.421766 83.1454213 C 141.713543 83.5989442 141.358782 84.2330964 141.358782 85.0491777 C 141.358782 86.3343756 142.265178 87.1433096 144.07602 87.4772792 L 147.48069 88.1036345 C 151.045848 88.750132 152.827452 90.4797563 152.827452 93.2886091 C 152.827452 94.8954315 152.164061 96.1936244 150.836629 97.1812386 C 149.509848 98.170802 147.743838 98.6652589 145.538599 98.6652589 C 141.395817 98.6652589 138.833218 96.9915127 137.852751 93.6466193 L 137.852751 93.6466193 Z" stroke-linecap="round" />
</g>
		<g transform="matrix(1 0 0 1 34.33 39.92)"  >
<path style="stroke: none; stroke-width: 1; stroke-dasharray: none; stroke-linecap: butt; stroke-dashoffset: 0; stroke-linejoin: miter; stroke-miterlimit: 4; fill: rgb(249,249,249); fill-rule: evenodd; opacity: 1;" vector-effect="non-scaling-stroke"  transform=" translate(-162.29, -89.43)" d="M 167.317442 92.9617868 L 169.851452 93.4815838 C 169.391431 94.9772995 168.492183 96.2157157 167.155005 97.1948832 C 165.819127 98.1753503 164.245442 98.6652589 162.436548 98.6652589 C 160.05068 98.6652589 158.120284 97.8251371 156.64601 96.1429442 C 155.170437 94.4620508 154.433624 92.2574619 154.433624 89.5304772 C 154.433624 86.7450152 155.199025 84.4949442 156.733726 82.7789645 C 158.265827 81.0629848 160.190376 80.2046701 162.507371 80.2046701 C 164.78798 80.2046701 166.624162 80.9947614 168.01267 82.5749442 C 169.401827 84.1557766 170.113299 86.5189036 170.147086 89.6669239 L 157.453645 89.6669239 C 157.453645 92.3120406 158.007228 94.0949442 159.111797 95.019533 C 160.218315 95.9434721 161.386558 96.4047919 162.619127 96.4047919 C 164.841259 96.4047919 166.407797 95.2566904 167.317442 92.9617868 L 167.317442 92.9617868 Z M 167.169299 87.6397157 C 167.146558 86.6592487 166.984772 85.7879391 166.685888 85.0264365 C 166.385706 84.264934 165.879553 83.6158376 165.165482 83.0791472 C 164.452061 82.5431066 163.592447 82.2747614 162.591188 82.2747614 C 161.243614 82.2747614 160.100061 82.7594721 159.161178 83.7288934 C 158.222944 84.6983147 157.69535 86.0010558 157.580345 87.6397157 L 167.169299 87.6397157 L 167.169299 87.6397157 Z" stroke-linecap="round" />
</g>
		<g transform="matrix(1 0 0 1 34.33 39.92)"  >
<path style="stroke: rgb(0,0,0); stroke-width: 1; stroke-dasharray: none; stroke-linecap: butt; stroke-dashoffset: 0; stroke-linejoin: miter; stroke-miterlimit: 4; fill: rgb(249,249,249); fill-rule: evenodd; opacity: 1;" vector-effect="non-scaling-stroke"  transform=" translate(-162.29, -89.43)" d="M 167.317442 92.9617868 L 169.851452 93.4815838 C 169.391431 94.9772995 168.492183 96.2157157 167.155005 97.1948832 C 165.819127 98.1753503 164.245442 98.6652589 162.436548 98.6652589 C 160.05068 98.6652589 158.120284 97.8251371 156.64601 96.1429442 C 155.170437 94.4620508 154.433624 92.2574619 154.433624 89.5304772 C 154.433624 86.7450152 155.199025 84.4949442 156.733726 82.7789645 C 158.265827 81.0629848 160.190376 80.2046701 162.507371 80.2046701 C 164.78798 80.2046701 166.624162 80.9947614 168.01267 82.5749442 C 169.401827 84.1557766 170.113299 86.5189036 170.147086 89.6669239 L 157.453645 89.6669239 C 157.453645 92.3120406 158.007228 94.0949442 159.111797 95.019533 C 160.218315 95.9434721 161.386558 96.4047919 162.619127 96.4047919 C 164.841259 96.4047919 166.407797 95.2566904 167.317442 92.9617868 L 167.317442 92.9617868 Z M 167.169299 87.6397157 C 167.146558 86.6592487 166.984772 85.7879391 166.685888 85.0264365 C 166.385706 84.264934 165.879553 83.6158376 165.165482 83.0791472 C 164.452061 82.5431066 163.592447 82.2747614 162.591188 82.2747614 C 161.243614 82.2747614 160.100061 82.7594721 159.161178 83.7288934 C 158.222944 84.6983147 157.69535 86.0010558 157.580345 87.6397157 L 167.169299 87.6397157 L 167.169299 87.6397157 Z" stroke-linecap="round" />
</g>
		<g transform="matrix(1 0 0 1 49.41 39.67)"  >
<path style="stroke: none; stroke-width: 1; stroke-dasharray: none; stroke-linecap: butt; stroke-dashoffset: 0; stroke-linejoin: miter; stroke-miterlimit: 4; fill: rgb(249,249,249); fill-rule: evenodd; opacity: 1;" vector-effect="non-scaling-stroke"  transform=" translate(-177.38, -89.19)" d="M 175.801827 98.178599 L 173.077442 98.178599 L 173.077442 80.6900305 L 175.464609 80.6900305 L 175.464609 84.7671878 C 176.30603 82.856934 177.15135 81.6198173 177.99797 81.0545381 C 178.845239 80.4879594 179.713299 80.2046701 180.601503 80.2046701 C 180.878294 80.2046701 181.236305 80.2261117 181.673584 80.2683452 L 181.673584 82.8660305 L 181.121949 82.8660305 C 179.624284 82.8660305 178.38067 83.4228629 177.391107 84.5345787 C 176.400893 85.6469442 175.87135 87.1082234 175.801827 88.9203655 L 175.801827 98.178599 L 175.801827 98.178599 Z" stroke-linecap="round" />
</g>
		<g transform="matrix(1 0 0 1 49.41 39.67)"  >
<path style="stroke: rgb(0,0,0); stroke-width: 1; stroke-dasharray: none; stroke-linecap: butt; stroke-dashoffset: 0; stroke-linejoin: miter; stroke-miterlimit: 4; fill: rgb(249,249,249); fill-rule: evenodd; opacity: 1;" vector-effect="non-scaling-stroke"  transform=" translate(-177.38, -89.19)" d="M 175.801827 98.178599 L 173.077442 98.178599 L 173.077442 80.6900305 L 175.464609 80.6900305 L 175.464609 84.7671878 C 176.30603 82.856934 177.15135 81.6198173 177.99797 81.0545381 C 178.845239 80.4879594 179.713299 80.2046701 180.601503 80.2046701 C 180.878294 80.2046701 181.236305 80.2261117 181.673584 80.2683452 L 181.673584 82.8660305 L 181.121949 82.8660305 C 179.624284 82.8660305 178.38067 83.4228629 177.391107 84.5345787 C 176.400893 85.6469442 175.87135 87.1082234 175.801827 88.9203655 L 175.801827 98.178599 L 175.801827 98.178599 Z" stroke-linecap="round" />
</g>
		<g transform="matrix(1 0 0 1 63.08 39.92)"  >
<path style="stroke: none; stroke-width: 1; stroke-dasharray: none; stroke-linecap: butt; stroke-dashoffset: 0; stroke-linejoin: miter; stroke-miterlimit: 4; fill: rgb(249,249,249); fill-rule: evenodd; opacity: 1;" vector-effect="non-scaling-stroke"  transform=" translate(-191.05, -89.43)" d="M 198.596223 80.6900305 L 192.558132 98.178599 L 189.734985 98.178599 L 183.494822 80.6900305 L 186.508995 80.6900305 L 191.363249 94.9051777 L 196.179817 80.6900305 L 198.596223 80.6900305 L 198.596223 80.6900305 Z" stroke-linecap="round" />
</g>
		<g transform="matrix(1 0 0 1 63.08 39.92)"  >
<path style="stroke: rgb(0,0,0); stroke-width: 1; stroke-dasharray: none; stroke-linecap: butt; stroke-dashoffset: 0; stroke-linejoin: miter; stroke-miterlimit: 4; fill: rgb(249,249,249); fill-rule: evenodd; opacity: 1;" vector-effect="non-scaling-stroke"  transform=" translate(-191.05, -89.43)" d="M 198.596223 80.6900305 L 192.558132 98.178599 L 189.734985 98.178599 L 183.494822 80.6900305 L 186.508995 80.6900305 L 191.363249 94.9051777 L 196.179817 80.6900305 L 198.596223 80.6900305 L 198.596223 80.6900305 Z" stroke-linecap="round" />
</g>
		<g transform="matrix(1 0 0 1 74.27 36.85)"  >
<path style="stroke: none; stroke-width: 1; stroke-dasharray: none; stroke-linecap: butt; stroke-dashoffset: 0; stroke-linejoin: miter; stroke-miterlimit: 4; fill: rgb(249,249,249); fill-rule: evenodd; opacity: 1;" vector-effect="non-scaling-stroke"  transform=" translate(-202.23, -86.37)" d="M 200.774173 74.5655228 L 203.688934 74.5655228 L 203.688934 77.5861929 L 200.774173 77.5861929 L 200.774173 74.5655228 Z M 200.900873 80.6900305 L 203.625259 80.6900305 L 203.625259 98.178599 L 200.900873 98.178599 L 200.900873 80.6900305 Z" stroke-linecap="round" />
</g>
		<g transform="matrix(1 0 0 1 74.27 36.85)"  >
<path style="stroke: rgb(0,0,0); stroke-width: 1; stroke-dasharray: none; stroke-linecap: butt; stroke-dashoffset: 0; stroke-linejoin: miter; stroke-miterlimit: 4; fill: rgb(249,249,249); fill-rule: evenodd; opacity: 1;" vector-effect="non-scaling-stroke"  transform=" translate(-202.23, -86.37)" d="M 200.774173 74.5655228 L 203.688934 74.5655228 L 203.688934 77.5861929 L 200.774173 77.5861929 L 200.774173 74.5655228 Z M 200.900873 80.6900305 L 203.625259 80.6900305 L 203.625259 98.178599 L 200.900873 98.178599 L 200.900873 80.6900305 Z" stroke-linecap="round" />
</g>
		<g transform="matrix(1 0 0 1 85.27 39.92)"  >
<path style="stroke: none; stroke-width: 1; stroke-dasharray: none; stroke-linecap: butt; stroke-dashoffset: 0; stroke-linejoin: miter; stroke-miterlimit: 4; fill: rgb(249,249,249); fill-rule: evenodd; opacity: 1;" vector-effect="non-scaling-stroke"  transform=" translate(-213.23, -89.43)" d="M 217.859249 92.0540914 L 220.308792 92.4861726 C 219.963127 94.4185178 219.195777 95.9317766 218.008041 97.0246497 C 216.820305 98.1181726 215.338234 98.6652589 213.561827 98.6652589 C 211.151919 98.6652589 209.314437 97.7744569 208.05198 95.9954518 C 206.789523 94.2164467 206.15732 92.0436954 206.15732 89.4778477 C 206.15732 86.8203858 206.823959 84.610599 208.155939 82.8484873 C 209.487269 81.0857259 211.30136 80.2046701 213.596264 80.2046701 C 215.50002 80.2046701 217.024975 80.7738477 218.172426 81.9135025 C 219.320528 83.0518579 220.032 84.523533 220.308792 86.3272284 L 217.859249 86.7943959 C 217.397929 83.9088731 216.003574 82.4644873 213.675533 82.4644873 C 212.177868 82.4644873 211.025218 83.1012386 210.219533 84.3753909 C 209.412548 85.6501929 209.009056 87.3018477 209.009056 89.3310051 C 209.009056 91.568731 209.409299 93.3055025 210.210437 94.545868 C 211.011574 95.784934 212.137584 96.4047919 213.590416 96.4047919 C 215.835939 96.4047919 217.259533 94.9545584 217.859249 92.0540914 L 217.859249 92.0540914 Z" stroke-linecap="round" />
</g>
		<g transform="matrix(1 0 0 1 85.27 39.92)"  >
<path style="stroke: rgb(0,0,0); stroke-width: 1; stroke-dasharray: none; stroke-linecap: butt; stroke-dashoffset: 0; stroke-linejoin: miter; stroke-miterlimit: 4; fill: rgb(249,249,249); fill-rule: evenodd; opacity: 1;" vector-effect="non-scaling-stroke"  transform=" translate(-213.23, -89.43)" d="M 217.859249 92.0540914 L 220.308792 92.4861726 C 219.963127 94.4185178 219.195777 95.9317766 218.008041 97.0246497 C 216.820305 98.1181726 215.338234 98.6652589 213.561827 98.6652589 C 211.151919 98.6652589 209.314437 97.7744569 208.05198 95.9954518 C 206.789523 94.2164467 206.15732 92.0436954 206.15732 89.4778477 C 206.15732 86.8203858 206.823959 84.610599 208.155939 82.8484873 C 209.487269 81.0857259 211.30136 80.2046701 213.596264 80.2046701 C 215.50002 80.2046701 217.024975 80.7738477 218.172426 81.9135025 C 219.320528 83.0518579 220.032 84.523533 220.308792 86.3272284 L 217.859249 86.7943959 C 217.397929 83.9088731 216.003574 82.4644873 213.675533 82.4644873 C 212.177868 82.4644873 211.025218 83.1012386 210.219533 84.3753909 C 209.412548 85.6501929 209.009056 87.3018477 209.009056 89.3310051 C 209.009056 91.568731 209.409299 93.3055025 210.210437 94.545868 C 211.011574 95.784934 212.137584 96.4047919 213.590416 96.4047919 C 215.835939 96.4047919 217.259533 94.9545584 217.859249 92.0540914 L 217.859249 92.0540914 Z" stroke-linecap="round" />
</g>
		<g transform="matrix(1 0 0 1 102.68 39.92)"  >
<path style="stroke: none; stroke-width: 1; stroke-dasharray: none; stroke-linecap: butt; stroke-dashoffset: 0; stroke-linejoin: miter; stroke-miterlimit: 4; fill: rgb(249,249,249); fill-rule: evenodd; opacity: 1;" vector-effect="non-scaling-stroke"  transform=" translate(-230.65, -89.43)" d="M 235.67399 92.9617868 L 238.208 93.4815838 C 237.74733 94.9772995 236.848731 96.2157157 235.511553 97.1948832 C 234.175675 98.1753503 232.60199 98.6652589 230.793096 98.6652589 C 228.407228 98.6652589 226.476832 97.8251371 225.001909 96.1429442 C 223.526985 94.4620508 222.789523 92.2574619 222.789523 89.5304772 C 222.789523 86.7450152 223.555574 84.4949442 225.089624 82.7789645 C 226.621726 81.0629848 228.546924 80.2046701 230.863919 80.2046701 C 233.144528 80.2046701 234.980711 80.9947614 236.369218 82.5749442 C 237.758376 84.1557766 238.469848 86.5189036 238.503635 89.6669239 L 225.810193 89.6669239 C 225.810193 92.3120406 226.363127 94.0949442 227.468345 95.019533 C 228.574863 95.9434721 229.742457 96.4047919 230.975675 96.4047919 C 233.197157 96.4047919 234.763695 95.2566904 235.67399 92.9617868 L 235.67399 92.9617868 Z M 235.525848 87.6397157 C 235.503107 86.6592487 235.34132 85.7879391 235.041787 85.0264365 C 234.742254 84.264934 234.236102 83.6158376 233.52203 83.0791472 C 232.807959 82.5431066 231.948995 82.2747614 230.947086 82.2747614 C 229.598863 82.2747614 228.455959 82.7594721 227.517726 83.7288934 C 226.578843 84.6983147 226.051249 86.0010558 225.936893 87.6397157 L 235.525848 87.6397157 L 235.525848 87.6397157 Z" stroke-linecap="round" />
</g>
		<g transform="matrix(1 0 0 1 102.68 39.92)"  >
<path style="stroke: rgb(0,0,0); stroke-width: 1; stroke-dasharray: none; stroke-linecap: butt; stroke-dashoffset: 0; stroke-linejoin: miter; stroke-miterlimit: 4; fill: rgb(249,249,249); fill-rule: evenodd; opacity: 1;" vector-effect="non-scaling-stroke"  transform=" translate(-230.65, -89.43)" d="M 235.67399 92.9617868 L 238.208 93.4815838 C 237.74733 94.9772995 236.848731 96.2157157 235.511553 97.1948832 C 234.175675 98.1753503 232.60199 98.6652589 230.793096 98.6652589 C 228.407228 98.6652589 226.476832 97.8251371 225.001909 96.1429442 C 223.526985 94.4620508 222.789523 92.2574619 222.789523 89.5304772 C 222.789523 86.7450152 223.555574 84.4949442 225.089624 82.7789645 C 226.621726 81.0629848 228.546924 80.2046701 230.863919 80.2046701 C 233.144528 80.2046701 234.980711 80.9947614 236.369218 82.5749442 C 237.758376 84.1557766 238.469848 86.5189036 238.503635 89.6669239 L 225.810193 89.6669239 C 225.810193 92.3120406 226.363127 94.0949442 227.468345 95.019533 C 228.574863 95.9434721 229.742457 96.4047919 230.975675 96.4047919 C 233.197157 96.4047919 234.763695 95.2566904 235.67399 92.9617868 L 235.67399 92.9617868 Z M 235.525848 87.6397157 C 235.503107 86.6592487 235.34132 85.7879391 235.041787 85.0264365 C 234.742254 84.264934 234.236102 83.6158376 233.52203 83.0791472 C 232.807959 82.5431066 231.948995 82.2747614 230.947086 82.2747614 C 229.598863 82.2747614 228.455959 82.7594721 227.517726 83.7288934 C 226.578843 84.6983147 226.051249 86.0010558 225.936893 87.6397157 L 235.525848 87.6397157 L 235.525848 87.6397157 Z" stroke-linecap="round" />
</g>
		<g transform="matrix(1 0 0 1 119.57 39.92)"  >
<path style="stroke: none; stroke-width: 1; stroke-dasharray: none; stroke-linecap: butt; stroke-dashoffset: 0; stroke-linejoin: miter; stroke-miterlimit: 4; fill: rgb(249,249,249); fill-rule: evenodd; opacity: 1;" vector-effect="non-scaling-stroke"  transform=" translate(-247.53, -89.43)" d="M 240.042234 93.6466193 L 242.641218 93.1099289 C 243.218193 95.3067208 245.04268 96.4047919 248.113381 96.4047919 C 249.245239 96.4047919 250.202964 96.1520406 250.987858 95.6452386 C 251.773401 95.1390863 252.166497 94.4250152 252.166497 93.5036751 C 252.166497 92.1346599 251.167188 91.2652995 249.167919 90.8968934 L 245.484508 90.1958173 C 244.042071 89.9190254 242.894619 89.3764873 242.040853 88.568203 C 241.187736 87.7599188 240.760853 86.6923858 240.760853 85.3643046 C 240.760853 83.8991269 241.342376 82.6724061 242.50802 81.6854416 C 243.671716 80.6984772 245.240203 80.2046701 247.213482 80.2046701 C 251.006701 80.2046701 253.348386 81.6880406 254.235939 84.6528325 L 251.743513 85.1888731 C 251.029442 83.3728325 249.559716 82.4644873 247.335635 82.4644873 C 246.229117 82.4644873 245.321421 82.6918985 244.612548 83.1454213 C 243.903675 83.5989442 243.548914 84.2330964 243.548914 85.0491777 C 243.548914 86.3343756 244.45466 87.1433096 246.266802 87.4772792 L 249.671472 88.1036345 C 253.23533 88.750132 255.017584 90.4797563 255.017584 93.2886091 C 255.017584 94.8954315 254.354843 96.1936244 253.026761 97.1812386 C 251.69998 98.170802 249.93332 98.6652589 247.729381 98.6652589 C 243.585949 98.6652589 241.02335 96.9915127 240.042234 93.6466193 L 240.042234 93.6466193 Z" stroke-linecap="round" />
</g>
		<g transform="matrix(1 0 0 1 119.57 39.92)"  >
<path style="stroke: rgb(0,0,0); stroke-width: 1; stroke-dasharray: none; stroke-linecap: butt; stroke-dashoffset: 0; stroke-linejoin: miter; stroke-miterlimit: 4; fill: rgb(249,249,249); fill-rule: evenodd; opacity: 1;" vector-effect="non-scaling-stroke"  transform=" translate(-247.53, -89.43)" d="M 240.042234 93.6466193 L 242.641218 93.1099289 C 243.218193 95.3067208 245.04268 96.4047919 248.113381 96.4047919 C 249.245239 96.4047919 250.202964 96.1520406 250.987858 95.6452386 C 251.773401 95.1390863 252.166497 94.4250152 252.166497 93.5036751 C 252.166497 92.1346599 251.167188 91.2652995 249.167919 90.8968934 L 245.484508 90.1958173 C 244.042071 89.9190254 242.894619 89.3764873 242.040853 88.568203 C 241.187736 87.7599188 240.760853 86.6923858 240.760853 85.3643046 C 240.760853 83.8991269 241.342376 82.6724061 242.50802 81.6854416 C 243.671716 80.6984772 245.240203 80.2046701 247.213482 80.2046701 C 251.006701 80.2046701 253.348386 81.6880406 254.235939 84.6528325 L 251.743513 85.1888731 C 251.029442 83.3728325 249.559716 82.4644873 247.335635 82.4644873 C 246.229117 82.4644873 245.321421 82.6918985 244.612548 83.1454213 C 243.903675 83.5989442 243.548914 84.2330964 243.548914 85.0491777 C 243.548914 86.3343756 244.45466 87.1433096 246.266802 87.4772792 L 249.671472 88.1036345 C 253.23533 88.750132 255.017584 90.4797563 255.017584 93.2886091 C 255.017584 94.8954315 254.354843 96.1936244 253.026761 97.1812386 C 251.69998 98.170802 249.93332 98.6652589 247.729381 98.6652589 C 243.585949 98.6652589 241.02335 96.9915127 240.042234 93.6466193 L 240.042234 93.6466193 Z" stroke-linecap="round" />
</g>
		<g transform="matrix(1 0 0 1 60.9 3.9)"  >
<path style="stroke: none; stroke-width: 1; stroke-dasharray: none; stroke-linecap: butt; stroke-dashoffset: 0; stroke-linejoin: miter; stroke-miterlimit: 4; fill: rgb(249,249,249); fill-rule: evenodd; opacity: 1;" vector-effect="non-scaling-stroke"  transform=" translate(-188.87, -53.42)" d="M 178.630822 43.312731 L 178.630822 39.1121218 C 178.633421 38.4727716 179.114883 38.0465381 179.695107 38.0478376 L 198.523452 38.0458883 C 199.125766 38.0458883 199.608528 38.4838173 199.609827 39.1069239 L 199.608528 42.7097665 C 199.60398 43.3140305 199.095228 44.1028223 198.190782 45.3542335 L 188.438741 59.2789442 C 192.059127 59.1938274 195.888081 59.7357157 199.177746 61.5848934 C 199.919756 62.0013807 200.117929 62.6192893 200.176406 63.2248528 L 200.176406 67.706802 C 200.176406 68.3247107 199.50067 69.0394315 198.790497 68.6677766 C 192.994761 65.6321624 185.304365 65.2994924 178.896569 68.7041624 C 178.241624 69.0530761 177.556792 68.3487513 177.556792 67.7308426 L 177.556792 63.4698071 C 177.556792 62.7882234 177.569137 61.6219289 178.257218 60.582335 L 189.556305 44.372467 L 179.718497 44.3705178 C 179.116832 44.3705178 178.634721 43.9416853 178.630822 43.312731" stroke-linecap="round" />
</g>
		<g transform="matrix(1 0 0 1 -4.17 4.01)"  >
<path style="stroke: none; stroke-width: 1; stroke-dasharray: none; stroke-linecap: butt; stroke-dashoffset: 0; stroke-linejoin: miter; stroke-miterlimit: 4; fill: rgb(249,249,249); fill-rule: evenodd; opacity: 1;" vector-effect="non-scaling-stroke"  transform=" translate(-123.79, -53.53)" d="M 111.249543 69.5507817 L 105.521381 69.5507817 C 104.976244 69.5150457 104.540914 69.1050558 104.496731 68.5826599 L 104.500629 39.1835939 C 104.500629 38.5955736 104.995736 38.1251574 105.605848 38.1251574 L 110.940264 38.1238579 C 111.499046 38.1524467 111.946721 38.5747817 111.982457 39.1108223 L 111.982457 42.9495228 L 112.089665 42.9495228 C 113.479472 39.2375228 116.099898 37.5052995 119.62802 37.5052995 C 123.210721 37.5052995 125.456244 39.2375228 127.061117 42.9495228 C 128.450274 39.2375228 131.605442 37.5052995 134.973726 37.5052995 C 137.380386 37.5052995 140.000162 38.4948629 141.604386 40.7221929 C 143.421726 43.1964264 143.048122 46.7849746 143.048122 49.9401421 L 143.043574 68.4923452 C 143.043574 69.0797157 142.549117 69.5507817 141.939005 69.5507817 L 136.21799 69.5507817 C 135.642964 69.5137462 135.189442 69.0582741 135.189442 68.4949442 L 135.188142 52.9094822 C 135.188142 51.6723655 135.29535 48.5789239 135.027005 47.403533 C 134.599472 45.4237563 133.316873 44.8669239 131.659371 44.8669239 C 130.268914 44.8669239 128.825178 45.7947614 128.236508 47.2800812 C 127.648487 48.7647513 127.702416 51.2389848 127.702416 52.9094822 L 127.702416 68.4923452 C 127.702416 69.0797157 127.20731 69.5507817 126.597848 69.5507817 L 120.876183 69.5507817 C 120.301157 69.5137462 119.847635 69.0582741 119.847635 68.4949442 L 119.841787 52.9094822 C 119.841787 49.6308629 120.377178 44.805198 116.313665 44.805198 C 112.196223 44.805198 112.356711 49.5067614 112.356711 52.9094822 L 112.354112 68.4923452 C 112.354761 69.0797157 111.859655 69.5507817 111.249543 69.5507817" stroke-linecap="round" />
</g>
		<g transform="matrix(1 0 0 1 85.58 4.32)"  >
<path style="stroke: none; stroke-width: 1; stroke-dasharray: none; stroke-linecap: butt; stroke-dashoffset: 0; stroke-linejoin: miter; stroke-miterlimit: 4; fill: rgb(249,249,249); fill-rule: evenodd; opacity: 1;" vector-effect="non-scaling-stroke"  transform=" translate(-213.55, -53.84)" d="M 213.440975 37.5052995 C 221.87468 37.5052995 226.436548 44.805198 226.436548 54.0848731 C 226.436548 63.0546193 221.398416 70.1699898 213.440975 70.1699898 C 205.166457 70.1699898 200.657218 62.8694416 200.657218 53.7755939 C 200.657218 44.6193706 205.219736 37.5052995 213.440975 37.5052995 L 213.440975 37.5052995 Z M 213.494254 44.2626599 C 209.302741 44.2626599 209.038294 50.0161624 209.038294 53.6040609 C 209.038294 57.1919594 208.985015 64.1072081 213.440975 64.1072081 C 217.844305 64.1072081 218.056122 58.6772792 218.056122 54.9035533 C 218.056122 52.4286701 217.950863 49.4593299 217.207553 47.1085482 C 216.570152 45.0670457 215.297299 44.2626599 213.494254 44.2626599 L 213.494254 44.2626599 Z" stroke-linecap="round" />
</g>
		<g transform="matrix(1 0 0 1 115.7 4.01)"  >
<path style="stroke: none; stroke-width: 1; stroke-dasharray: none; stroke-linecap: butt; stroke-dashoffset: 0; stroke-linejoin: miter; stroke-miterlimit: 4; fill: rgb(249,249,249); fill-rule: evenodd; opacity: 1;" vector-effect="non-scaling-stroke"  transform=" translate(-243.66, -53.53)" d="M 238.64333 69.5507817 L 232.936609 69.5507817 C 232.362883 69.5137462 231.908711 69.0582741 231.908711 68.4949442 L 231.899614 39.0848325 C 231.947695 38.5474924 232.42266 38.1251574 233.000284 38.1251574 L 238.313259 38.1238579 C 238.813563 38.149198 239.226152 38.4909645 239.331411 38.9470863 L 239.331411 43.4439797 L 239.439269 43.4439797 C 241.043492 39.4227005 243.287716 37.5052995 247.24467 37.5052995 C 249.811168 37.5052995 252.325036 38.4331371 253.928609 40.9697462 C 255.426274 43.3205279 255.426274 47.2800812 255.426274 50.1259695 L 255.426274 68.6242437 C 255.361949 69.1459898 254.894782 69.5507817 254.328853 69.5507817 L 248.586396 69.5507817 C 248.055553 69.5163452 247.62802 69.1271472 247.566294 68.6242437 L 247.566294 52.6619289 C 247.566294 49.4450355 247.940548 44.7434721 243.983594 44.7434721 C 242.592487 44.7434721 241.309888 45.6713096 240.668589 47.0942538 C 239.866802 48.888203 239.758944 50.6821523 239.758944 52.6619289 L 239.758944 68.4923452 C 239.748548 69.0797157 239.254091 69.5507817 238.64333 69.5507817" stroke-linecap="round" />
</g>
		<g transform="matrix(1 0 0 1 33.12 4.07)"  >
<path style="stroke: none; stroke-width: 1; stroke-dasharray: none; stroke-linecap: butt; stroke-dashoffset: 0; stroke-linejoin: miter; stroke-miterlimit: 4; fill: rgb(249,249,249); fill-rule: evenodd; opacity: 1;" vector-effect="non-scaling-stroke"  transform=" translate(-161.08, -53.59)" d="M 164.270782 55.511066 C 164.270782 57.7435939 164.324061 59.6031675 163.19935 61.5874924 C 162.288406 63.1995127 160.841421 64.1910254 159.233299 64.1910254 C 157.037157 64.1910254 155.75066 62.5166294 155.75066 60.037198 C 155.75066 55.1589036 160.126701 54.2713503 164.270782 54.2713503 L 164.270782 55.511066 L 164.270782 55.511066 Z M 170.045726 69.4773604 C 169.666274 69.8171777 169.119838 69.8399188 168.692305 69.6105584 C 166.789848 68.0290761 166.449381 67.2981117 165.409137 65.7932995 C 162.264365 68.9965482 160.037685 69.9568731 155.965076 69.9568731 C 151.14266 69.9568731 147.391675 66.9810355 147.391675 61.0293604 C 147.391675 56.3791269 149.910091 53.2174619 153.499939 51.6671675 C 156.607675 50.3027005 160.948629 50.0551472 164.270782 49.6828426 L 164.270782 48.9388832 C 164.270782 47.575066 164.37799 45.9630457 163.574254 44.7850558 C 162.877726 43.7311675 161.537949 43.2971371 160.35931 43.2971371 C 158.174213 43.2971371 156.232122 44.4166497 155.755208 46.7368934 C 155.656447 47.2527919 155.278944 47.7634924 154.760447 47.7894822 L 149.208365 47.1891168 C 148.739249 47.0832081 148.218152 46.7070051 148.353299 45.9916345 C 149.629401 39.2557157 155.711675 37.2207107 161.163046 37.2207107 C 163.949157 37.2207107 167.593584 37.9646701 169.789726 40.0730964 C 172.576487 42.6772792 172.308142 46.1488731 172.308142 49.9310457 L 172.308142 58.8553096 C 172.308142 61.5394112 173.423756 62.717401 174.471147 64.163736 C 174.836305 64.6848325 174.918822 65.3046904 174.451655 65.6854416 C 173.281462 66.6659086 171.202924 68.472203 170.058721 69.4897056 L 170.045726 69.4773604 L 170.045726 69.4773604 Z" stroke-linecap="round" />
</g>
		<g transform="matrix(1 0 0 1 -41.32 4.07)"  >
<path style="stroke: none; stroke-width: 1; stroke-dasharray: none; stroke-linecap: butt; stroke-dashoffset: 0; stroke-linejoin: miter; stroke-miterlimit: 4; fill: rgb(249,249,249); fill-rule: evenodd; opacity: 1;" vector-effect="non-scaling-stroke"  transform=" translate(-86.64, -53.59)" d="M 89.8300102 55.511066 C 89.8300102 57.7435939 89.8839391 59.6031675 88.7585787 61.5874924 C 87.8476345 63.1995127 86.4012995 64.1910254 84.7931777 64.1910254 C 82.5963858 64.1910254 81.3105381 62.5166294 81.3105381 60.037198 C 81.3105381 55.1589036 85.6865787 54.2713503 89.8300102 54.2713503 L 89.8300102 55.511066 L 89.8300102 55.511066 Z M 95.6056041 69.4773604 C 95.2261523 69.8171777 94.679066 69.8399188 94.2521827 69.6105584 C 92.3490761 68.0290761 92.0079594 67.2981117 90.9683655 65.7932995 C 87.8242437 68.9965482 85.5969137 69.9568731 81.5249543 69.9568731 C 76.7018883 69.9568731 72.9509036 66.9810355 72.9509036 61.0293604 C 72.9509036 56.3791269 75.4693198 53.2174619 79.0598173 51.6671675 C 82.1675533 50.3027005 86.5085076 50.0551472 89.8300102 49.6828426 L 89.8300102 48.9388832 C 89.8300102 47.575066 89.9372183 45.9630457 89.134132 44.7850558 C 88.4369543 43.7311675 87.0971777 43.2971371 85.9185381 43.2971371 C 83.7340914 43.2971371 81.7913503 44.4166497 81.3144365 46.7368934 C 81.2150254 47.2527919 80.8388223 47.7634924 80.3190254 47.7894822 L 74.7675939 47.1891168 C 74.2991269 47.0832081 73.7773807 46.7070051 73.9131777 45.9916345 C 75.1886294 39.2557157 81.2709036 37.2207107 86.7222741 37.2207107 C 89.5090355 37.2207107 93.1521624 37.9646701 95.3496041 40.0730964 C 98.1357157 42.6772792 97.8680203 46.1488731 97.8680203 49.9310457 L 97.8680203 58.8553096 C 97.8680203 61.5394112 98.9829848 62.717401 100.029726 64.163736 C 100.395533 64.6848325 100.478051 65.3046904 100.011533 65.6854416 C 98.8413401 66.6659086 96.7621523 68.472203 95.618599 69.4897056 L 95.6056041 69.4773604 L 95.6056041 69.4773604 Z" stroke-linecap="round" />
</g>
</g>
</g>
</svg>