<?xml version="1.0" encoding="UTF-8" standalone="no" ?>
<!DOCTYPE svg PUBLIC "-//W3C//DTD SVG 1.1//EN" "http://www.w3.org/Graphics/SVG/1.1/DTD/svg11.dtd">
<svg xmlns="http://www.w3.org/2000/svg" xmlns:xlink="http://www.w3.org/1999/xlink" version="1.1" width="1080" height="1080" viewBox="0 0 1080 1080" xml:space="preserve">
<desc>Created with Fabric.js 5.2.4</desc>
<defs>
</defs>
<rect x="0" y="0" width="100%" height="100%" fill="transparent"></rect>
<g transform="matrix(1 0 0 1 540 540)" id="11645091-8f3b-4e8c-b492-c9c79ecbd97f"  >
<rect style="stroke: none; stroke-width: 1; stroke-dasharray: none; stroke-linecap: butt; stroke-dashoffset: 0; stroke-linejoin: miter; stroke-miterlimit: 4; fill: rgb(255,255,255); fill-rule: nonzero; opacity: 1; visibility: hidden;" vector-effect="non-scaling-stroke"  x="-540" y="-540" rx="0" ry="0" width="1080" height="1080" />
</g>
<g transform="matrix(1 0 0 1 540 540)" id="5be467fa-889d-46c2-bd6c-8c5287beaf16"  >
</g>
<g transform="matrix(4.3 0 0 4.3 540 540)"  >
<g style="" vector-effect="non-scaling-stroke"   >
		<g transform="matrix(1 0 0 1 84.82 8.13)"  >
<path style="stroke: none; stroke-width: 1; stroke-dasharray: none; stroke-linecap: butt; stroke-dashoffset: 0; stroke-linejoin: miter; stroke-miterlimit: 4; fill: rgb(255,255,255); fill-rule: nonzero; opacity: 1;" vector-effect="non-scaling-stroke"  transform=" translate(-186.13, -12.99)" d="M 187.534955 11.347281 C 187.534955 10.9179949 187.417163 10.611119 187.175016 10.4105316 C 186.906783 10.1946329 186.442823 10.0795139 185.79699 10.0795139 L 184.868504 10.0795139 L 184.868504 12.6314127 L 185.989071 12.6314127 C 187.023846 12.6314127 187.534955 12.2021266 187.534955 11.347281 L 187.534955 11.347281 Z M 188.982651 16.6680304 L 187.706702 16.6680304 L 186.893011 14.8725468 C 186.479765 13.9728203 186.038084 13.522957 185.555573 13.522957 L 184.868504 13.522957 L 184.868504 16.6680304 L 183.817284 16.6680304 L 183.817284 9.18367595 L 185.923613 9.18367595 C 186.860282 9.18367595 187.56339 9.38653165 188.046307 9.80957975 C 188.455259 10.1734076 188.659735 10.6398785 188.659735 11.2206582 C 188.659735 11.7359797 188.492849 12.1694785 188.156565 12.5290127 C 187.829355 12.8931646 187.358914 13.1385519 186.757882 13.2654987 L 186.757882 13.2979038 C 187.175016 13.3960911 187.59215 13.8541367 187.996889 14.6802228 L 188.982651 16.672081 L 188.982651 16.6680304 Z M 191.313709 12.9994532 C 191.313709 11.5272101 190.810864 10.2839899 189.808737 9.29822785 C 188.802722 8.31278987 187.575785 7.81804557 186.128089 7.81804557 C 184.635188 7.81804557 183.392292 8.31278987 182.40653 9.30673418 C 181.420768 10.3045671 180.930317 11.539281 180.930317 12.9994532 C 180.930317 14.4923544 181.441345 15.7395443 182.455623 16.7334886 C 183.45775 17.7271089 184.684606 18.2178835 186.128089 18.2178835 C 187.56339 18.2178835 188.790246 17.7231392 189.800555 16.7168 C 190.810864 15.7270684 191.313709 14.4841722 191.313709 12.9994532 L 191.313709 12.9994532 Z M 192.021112 12.9670481 C 192.021112 14.6196253 191.452808 16.0058329 190.311907 17.1221873 C 189.170763 18.2469671 187.772079 18.8070886 186.09933 18.8070886 C 184.414671 18.8070886 183.016069 18.2551494 181.90336 17.1712 C 180.791299 16.0712911 180.239036 14.6889722 180.239036 13.0122532 C 180.239036 11.3721519 180.80337 9.99404557 181.932119 8.86140759 C 183.060869 7.73265823 184.467654 7.16832405 186.148666 7.16832405 C 187.796626 7.16832405 189.178945 7.70811139 190.299512 8.78355443 C 191.448514 9.88775696 192.021112 11.2782582 192.021112 12.9670481 L 192.021112 12.9670481 Z" stroke-linecap="round" />
</g>
		<g transform="matrix(1 0 0 1 -85.02 13.52)"  >
<path style="stroke: none; stroke-width: 1; stroke-dasharray: none; stroke-linecap: butt; stroke-dashoffset: 0; stroke-linejoin: miter; stroke-miterlimit: 4; fill: rgb(255,255,255); fill-rule: nonzero; opacity: 1;" vector-effect="non-scaling-stroke"  transform=" translate(-16.3, -18.38)" d="M 32.0650208 33.8363139 L 28.437679 33.8363139 L 28.437679 13.0773063 C 28.437679 11.4375291 28.5456689 9.44178228 28.738722 7.08617722 L 28.6568992 7.08617722 C 28.3172942 8.46420253 28.0064486 9.46211646 27.7326258 10.079838 L 17.1895575 33.8363139 L 15.4228334 33.8363139 L 4.85913924 10.2515848 C 4.56140962 9.5929519 4.24994835 8.53363038 3.93488203 7.08617722 L 3.85638076 7.08617722 C 3.96761924 8.32518481 4.02978835 10.3333266 4.02978835 13.1182177 L 4.02978835 33.8363139 L 0.532982278 33.8363139 L 0.532982278 2.92293671 L 5.31785722 2.92293671 L 14.8018876 24.4792709 C 15.5174157 26.1030076 15.9797063 27.3380456 16.2044678 28.1804962 L 16.3549732 28.1804962 C 16.9723382 26.4913823 17.4630967 25.2235342 17.8354147 24.3892658 L 27.5236132 2.92293671 L 32.0630765 2.92293671 L 32.0630765 33.8363139 L 32.0650208 33.8363139 Z" stroke-linecap="round" />
</g>
		<g transform="matrix(1 0 0 1 -59.79 12.84)"  >
<path style="stroke: none; stroke-width: 1; stroke-dasharray: none; stroke-linecap: butt; stroke-dashoffset: 0; stroke-linejoin: miter; stroke-miterlimit: 4; fill: rgb(255,255,255); fill-rule: nonzero; opacity: 1;" vector-effect="non-scaling-stroke"  transform=" translate(-41.52, -17.7)" d="M 43.2232182 33.8353418 L 39.6982765 33.8353418 L 39.6982765 11.7594734 L 43.2232182 11.7594734 L 43.2232182 33.8353418 L 43.2232182 33.8353418 Z M 43.8327575 3.84591392 C 43.8327575 4.49628354 43.6037347 5.04004051 43.1495777 5.48601519 C 42.7040081 5.93158481 42.1520689 6.15671899 41.5055878 6.15671899 C 40.8757954 6.15671899 40.3277448 5.94073924 39.8782056 5.51056203 C 39.4283423 5.07706329 39.2071777 4.5248 39.2071777 3.84591392 C 39.2071777 3.20793924 39.4296385 2.66418228 39.8782056 2.22250127 C 40.3277448 1.78082025 40.8757954 1.56816203 41.5055878 1.56816203 C 42.1517448 1.56816203 42.7040081 1.78082025 43.1495777 2.22250127 C 43.6037347 2.66418228 43.8327575 3.20793924 43.8327575 3.84591392 L 43.8327575 3.84591392 Z" stroke-linecap="round" />
</g>
		<g transform="matrix(1 0 0 1 -44.31 17.93)"  >
<path style="stroke: none; stroke-width: 1; stroke-dasharray: none; stroke-linecap: butt; stroke-dashoffset: 0; stroke-linejoin: miter; stroke-miterlimit: 4; fill: rgb(255,255,255); fill-rule: nonzero; opacity: 1;" vector-effect="non-scaling-stroke"  transform=" translate(-57, -22.79)" d="M 65.2535575 32.8139342 C 63.5604739 33.8526785 61.5401803 34.368 59.2048284 34.368 C 56.0398258 34.368 53.4918157 33.3171038 51.5451625 31.218957 C 49.6557043 29.1822987 48.7029954 26.5528709 48.7029954 23.3301873 C 48.7029954 19.7146734 49.7375271 16.7867949 51.823198 14.5620253 C 53.896798 12.333043 56.6859828 11.2206582 60.1948841 11.2206582 C 62.1127777 11.2206582 63.8140435 11.596881 65.3026511 12.3412253 L 65.3026511 15.9688911 C 63.6546916 14.8113823 61.9125144 14.2387848 60.0433904 14.2387848 C 57.7940739 14.2387848 55.9661853 15.0240405 54.5469246 16.5905013 C 53.0703878 18.1936608 52.3221549 20.3366076 52.3221549 23.0112405 C 52.3221549 25.5795038 53.0052537 27.6119494 54.3630258 29.1129519 C 55.7247676 30.6055291 57.5366157 31.3540861 59.8225499 31.3540861 C 61.7528385 31.3540861 63.5604739 30.72 65.2535575 29.4565266 L 65.2535575 32.8139342 L 65.2535575 32.8139342 Z" stroke-linecap="round" />
</g>
		<g transform="matrix(1 0 0 1 -24.96 17.74)"  >
<path style="stroke: none; stroke-width: 1; stroke-dasharray: none; stroke-linecap: butt; stroke-dashoffset: 0; stroke-linejoin: miter; stroke-miterlimit: 4; fill: rgb(255,255,255); fill-rule: nonzero; opacity: 1;" vector-effect="non-scaling-stroke"  transform=" translate(-76.36, -22.6)" d="M 82.1152891 15.341043 C 81.493679 14.8627443 80.5982461 14.6294278 79.4161904 14.6294278 C 77.9808891 14.6294278 76.7742866 15.2716962 75.7970309 16.5678987 C 74.6885347 18.0156759 74.1365954 20.0196051 74.1365954 22.5796861 L 74.1365954 33.8343696 L 70.6031473 33.8343696 L 70.6031473 11.7585013 L 74.1365954 11.7585013 L 74.1365954 16.3104405 L 74.2216587 16.3104405 C 74.7411929 14.6990987 75.5428132 13.4597671 76.6142866 12.5806987 C 77.6160891 11.7791595 78.7490511 11.3740962 79.996241 11.3740962 C 80.936879 11.3740962 81.6363423 11.4755241 82.114641 11.6750582 L 82.114641 15.3394228 L 82.1152891 15.341043 Z" stroke-linecap="round" />
</g>
		<g transform="matrix(1 0 0 1 -6.75 17.93)"  >
<path style="stroke: none; stroke-width: 1; stroke-dasharray: none; stroke-linecap: butt; stroke-dashoffset: 0; stroke-linejoin: miter; stroke-miterlimit: 4; fill: rgb(255,255,255); fill-rule: nonzero; opacity: 1;" vector-effect="non-scaling-stroke"  transform=" translate(-94.57, -22.79)" d="M 101.808737 22.8374684 C 101.808737 20.0117468 101.170763 17.8524354 99.8948132 16.3719291 C 98.6558056 14.9487797 96.9256992 14.2371646 94.697041 14.2371646 C 92.5007068 14.2371646 90.7382765 14.956962 89.4210916 16.3964759 C 88.0266208 17.9341772 87.3314511 20.1056405 87.3314511 22.9235848 C 87.3314511 25.5654886 87.9939727 27.6387646 89.3314106 29.1191899 C 90.6603423 30.6077975 92.4516132 31.3521418 94.697041 31.3521418 C 97.019917 31.3521418 98.7987929 30.5957266 100.017466 29.0907544 C 101.211674 27.6184304 101.808737 25.5366481 101.808737 22.8374684 M 105.43219 22.7131949 C 105.43219 26.2302785 104.43857 29.0564051 102.459107 31.1748051 C 100.471623 33.3013873 97.7969904 34.3647595 94.4352891 34.3647595 C 91.1226815 34.3647595 88.4846663 33.3013873 86.5504891 31.1748051 C 84.6568182 29.1257519 83.7041094 26.4183899 83.7041094 23.0528 C 83.7041094 19.2124759 84.7794714 16.2515443 86.9387828 14.1495089 C 88.9345296 12.1988861 91.6049499 11.2173367 94.9506106 11.2173367 C 98.24256 11.2173367 100.815117 12.2436861 102.667552 14.2764557 C 104.503947 16.3212152 105.43219 19.1349468 105.43219 22.7131949" stroke-linecap="round" />
</g>
		<g transform="matrix(1 0 0 1 14.86 17.93)"  >
<path style="stroke: none; stroke-width: 1; stroke-dasharray: none; stroke-linecap: butt; stroke-dashoffset: 0; stroke-linejoin: miter; stroke-miterlimit: 4; fill: rgb(255,255,255); fill-rule: nonzero; opacity: 1;" vector-effect="non-scaling-stroke"  transform=" translate(-116.18, -22.79)" d="M 122.955714 27.9292759 C 122.955714 29.7369114 122.281122 31.2337013 120.927319 32.4279089 C 119.451107 33.7202228 117.422631 34.3663797 114.870732 34.3663797 C 112.780768 34.3663797 110.948585 33.9289114 109.394519 33.0373671 L 109.394519 29.2379544 C 111.124626 30.6448203 113.034256 31.3524658 115.132403 31.3524658 C 117.92977 31.3524658 119.332342 30.3219038 119.332342 28.268881 C 119.332342 27.4057722 119.024818 26.6902684 118.40418 26.1380051 C 117.782489 25.5736709 116.575887 24.8989975 114.780727 24.1095291 C 112.93218 23.2998076 111.615319 22.4697519 110.838327 21.6067241 C 109.905871 20.5842633 109.435431 19.2553316 109.435431 17.619443 C 109.435431 15.7872608 110.167623 14.2617114 111.615319 13.0472506 C 113.066985 11.8284962 114.931897 11.219038 117.222044 11.219038 C 118.976697 11.219038 120.547127 11.5625316 121.941517 12.2538127 L 121.941517 15.8118076 C 120.485638 14.7606684 118.821314 14.2371646 116.931856 14.2371646 C 115.762276 14.2371646 114.821638 14.5283241 114.122175 15.0959797 C 113.414773 15.6766785 113.058803 16.4171342 113.058803 17.3207494 C 113.058803 18.2983291 113.356525 19.059038 113.946459 19.6027949 C 114.469882 20.1059646 115.582266 20.7193924 117.259066 21.4348962 C 119.144231 22.2243646 120.506216 23.0423494 121.336271 23.8805063 C 122.411957 24.9399089 122.955714 26.2894987 122.955714 27.9292759" stroke-linecap="round" />
</g>
		<g transform="matrix(1 0 0 1 36 17.93)"  >
<path style="stroke: none; stroke-width: 1; stroke-dasharray: none; stroke-linecap: butt; stroke-dashoffset: 0; stroke-linejoin: miter; stroke-miterlimit: 4; fill: rgb(255,255,255); fill-rule: nonzero; opacity: 1;" vector-effect="non-scaling-stroke"  transform=" translate(-137.31, -22.79)" d="M 144.550368 22.8374684 C 144.550368 20.0117468 143.912393 17.8524354 142.632474 16.3719291 C 141.397436 14.9487797 139.66336 14.2371646 137.438671 14.2371646 C 135.242337 14.2371646 133.479826 14.956962 132.154783 16.3964759 C 130.764363 17.9341772 130.073001 20.1056405 130.073001 22.9235848 C 130.073001 25.5654886 130.735522 27.6387646 132.060565 29.1191899 C 133.406266 30.6077975 135.197537 31.3521418 137.438671 31.3521418 C 139.765436 31.3521418 141.540342 30.5957266 142.759097 29.0907544 C 143.953223 27.6184304 144.550368 25.5366481 144.550368 22.8374684 M 148.181922 22.7131949 C 148.181922 26.2302785 147.180119 29.0564051 145.196525 31.1748051 C 143.217142 33.3013873 140.542509 34.3647595 137.180808 34.3647595 C 133.864312 34.3647595 131.226297 33.3013873 129.292038 31.1748051 C 127.398449 29.1257519 126.445659 26.4183899 126.445659 23.0528 C 126.445659 19.2124759 127.529284 16.2515443 129.676525 14.1495089 C 131.672271 12.1988861 134.346904 11.2173367 137.69613 11.2173367 C 140.988403 11.2173367 143.556747 12.2436861 145.405213 14.2764557 C 147.245578 16.3212152 148.181922 19.1349468 148.181922 22.7131949" stroke-linecap="round" />
</g>
		<g transform="matrix(1 0 0 1 55.77 12.4)"  >
<path style="stroke: none; stroke-width: 1; stroke-dasharray: none; stroke-linecap: butt; stroke-dashoffset: 0; stroke-linejoin: miter; stroke-miterlimit: 4; fill: rgb(255,255,255); fill-rule: nonzero; opacity: 1;" vector-effect="non-scaling-stroke"  transform=" translate(-157.08, -17.26)" d="M 163.752312 4.25843038 C 163.057061 3.87402532 162.284363 3.67773165 161.404889 3.67773165 C 158.930519 3.67773165 157.703583 5.23568608 157.703583 8.35629367 L 157.703583 11.7588253 L 162.877132 11.7588253 L 162.877132 14.7524861 L 157.703583 14.7524861 L 157.703583 33.8346937 L 154.166246 33.8346937 L 154.166246 14.7524861 L 150.411957 14.7524861 L 150.411957 11.7588253 L 154.166246 11.7588253 L 154.166246 8.18057722 C 154.166246 5.75100759 154.910509 3.84526582 156.423745 2.47112911 C 157.720271 1.27692152 159.306742 0.684070886 161.192231 0.684070886 C 162.284363 0.684070886 163.134995 0.814987342 163.752312 1.06855696 L 163.752312 4.25843038 L 163.752312 4.25843038 Z" stroke-linecap="round" />
</g>
		<g transform="matrix(1 0 0 1 69.94 14.92)"  >
<path style="stroke: none; stroke-width: 1; stroke-dasharray: none; stroke-linecap: butt; stroke-dashoffset: 0; stroke-linejoin: miter; stroke-miterlimit: 4; fill: rgb(255,255,255); fill-rule: nonzero; opacity: 1;" vector-effect="non-scaling-stroke"  transform=" translate(-171.26, -19.78)" d="M 177.698641 33.612881 C 176.864373 34.0915038 175.751988 34.3287089 174.377851 34.3287089 C 170.525456 34.3287089 168.59938 32.1570025 168.59938 27.8137519 L 168.59938 14.7557266 L 164.812363 14.7557266 L 164.812363 11.7578532 L 168.59938 11.7578532 L 168.59938 6.37196962 C 169.72813 6.016 170.901679 5.62762532 172.141011 5.2268557 L 172.141011 11.7578532 L 177.698641 11.7578532 L 177.698641 14.7557266 L 172.141011 14.7557266 L 172.141011 27.2128 C 172.141011 28.6932253 172.383076 29.7523038 172.889244 30.3657316 C 173.400595 30.9997367 174.234864 31.3105823 175.412707 31.3105823 C 176.291856 31.3105823 177.052484 31.0749975 177.698641 30.5989671 L 177.698641 33.612881 L 177.698641 33.612881 Z" stroke-linecap="round" />
</g>
		<g transform="matrix(1 0 0 1 -120.94 115.13)"  >
<path style="stroke: none; stroke-width: 1; stroke-dasharray: none; stroke-linecap: butt; stroke-dashoffset: 0; stroke-linejoin: miter; stroke-miterlimit: 4; fill: rgb(255,255,255); fill-rule: nonzero; opacity: 1;" vector-effect="non-scaling-stroke"  transform=" translate(-7.11, -76.25)" d="M 13.4143919 76.2476557 C 13.4143919 77.977438 12.7970187 79.4742278 11.5495129 80.7381063 C 10.3062603 81.9976911 8.79702684 82.6317772 7.02637367 82.6317772 C 5.29629165 82.6317772 3.8240243 81.9976911 2.61774582 80.7381063 C 1.41114329 79.4742278 0.810126582 77.977438 0.810126582 76.2476557 C 0.810126582 74.4688608 1.41114329 72.9677772 2.61774582 71.724557 C 3.8240243 70.477043 5.29629165 69.8596456 7.02637367 69.8596456 C 8.79702684 69.8596456 10.3062603 70.4855494 11.5495129 71.7491038 C 12.7970187 73.0129823 13.4143919 74.5136608 13.4143919 76.2476557" stroke-linecap="round" />
</g>
		<g transform="matrix(1 0 0 1 -68.16 79.69)"  >
<path style="stroke: none; stroke-width: 1; stroke-dasharray: none; stroke-linecap: butt; stroke-dashoffset: 0; stroke-linejoin: miter; stroke-miterlimit: 4; fill: rgb(255,255,255); fill-rule: nonzero; opacity: 1;" vector-effect="non-scaling-stroke"  transform=" translate(-59.89, -40.81)" d="M 92.5311676 81.3316051 L 81.0066309 81.3316051 L 39.1738653 16.7277367 C 38.1962775 15.1736709 37.3538187 13.484557 36.6382906 11.6402228 L 36.2944324 11.6402228 C 36.592162 13.3700051 36.7446197 17.0833823 36.7446197 22.7722532 L 36.7446197 81.3316051 L 27.2442329 81.3316051 L 27.2442329 0.279250633 L 39.5746511 0.279250633 L 80.155998 63.8649519 C 81.7715524 66.3880911 82.8754309 68.1956456 83.4358765 69.2835646 L 83.6615777 69.2835646 C 83.2853549 66.9524253 83.0893853 62.9772962 83.0893853 57.3663595 L 83.0893853 0.279250633 L 92.5322208 0.279250633 L 92.5322208 81.3316051 L 92.5311676 81.3316051 Z" stroke-linecap="round" />
</g>
		<g transform="matrix(1 0 0 1 3.91 79.69)"  >
<path style="stroke: none; stroke-width: 1; stroke-dasharray: none; stroke-linecap: butt; stroke-dashoffset: 0; stroke-linejoin: miter; stroke-miterlimit: 4; fill: rgb(255,255,255); fill-rule: nonzero; opacity: 1;" vector-effect="non-scaling-stroke"  transform=" translate(-131.96, -40.81)" d="M 153.436079 81.3316051 L 110.478469 81.3316051 L 110.478469 0.279250633 L 151.571168 0.279250633 L 151.571168 8.86748354 L 119.970722 8.86748354 L 119.970722 35.8302785 L 149.252504 35.8302785 L 149.252504 44.4228051 L 119.970722 44.4228051 L 119.970722 72.7394025 L 153.436079 72.7394025 L 153.436079 81.3316051 L 153.436079 81.3316051 Z" stroke-linecap="round" />
</g>
		<g transform="matrix(1 0 0 1 62.43 79.69)"  >
<path style="stroke: none; stroke-width: 1; stroke-dasharray: none; stroke-linecap: butt; stroke-dashoffset: 0; stroke-linejoin: miter; stroke-miterlimit: 4; fill: rgb(255,255,255); fill-rule: nonzero; opacity: 1;" vector-effect="non-scaling-stroke"  transform=" translate(-190.48, -40.8)" d="M 218.594965 8.8684557 L 195.247522 8.8684557 L 195.247522 81.3329013 L 185.75138 81.3329013 L 185.75138 8.8684557 L 162.358651 8.8684557 L 162.358651 0.276334177 L 218.594965 0.276334177 L 218.594965 8.8684557 L 218.594965 8.8684557 Z" stroke-linecap="round" />
</g>
		<g transform="matrix(1 0 0 1 -15.94 -63.48)"  >
<path style="stroke: none; stroke-width: 1; stroke-dasharray: none; stroke-linecap: butt; stroke-dashoffset: 0; stroke-linejoin: miter; stroke-miterlimit: 4; fill: rgb(255,255,255); fill-rule: nonzero; opacity: 1;" vector-effect="non-scaling-stroke"  transform=" translate(-111.3, -58.04)" d="M 88.4994916 20.6885266 C 97.6642916 48.7146127 101.136413 98.7106025 127.935806 98.7106025 L 127.935806 98.7106025 C 129.976514 98.7106025 132.037719 98.5109873 134.107107 98.1174278 L 134.107107 98.1174278 C 109.745142 92.4370633 106.857851 42.9849114 91.9920284 17.3755949 L 91.9920284 17.3755949 C 90.8264182 18.4349165 89.6690714 19.539119 88.4994916 20.6885266" stroke-linecap="round" />
</g>
		<g transform="matrix(1 0 0 1 -11.31 -65.11)"  >
<path style="stroke: none; stroke-width: 1; stroke-dasharray: none; stroke-linecap: butt; stroke-dashoffset: 0; stroke-linejoin: miter; stroke-miterlimit: 4; fill: rgb(255,255,255); fill-rule: nonzero; opacity: 1;" vector-effect="non-scaling-stroke"  transform=" translate(-115.93, -56.41)" d="M 91.9920284 17.3755949 C 106.857851 42.9849114 109.745142 92.4370633 134.107107 98.1174278 L 134.107107 98.1174278 C 136.021031 97.7657519 137.939087 97.2340658 139.861193 96.563362 L 139.861193 96.563362 C 117.993932 85.8485468 111.949416 37.8279696 95.0674309 14.7091443 L 95.0674309 14.7091443 C 94.0449701 15.5601013 93.0185397 16.4516456 91.9920284 17.3755949" stroke-linecap="round" />
</g>
		<g transform="matrix(1 0 0 1 -22.76 -113.09)"  >
<path style="stroke: none; stroke-width: 1; stroke-dasharray: none; stroke-linecap: butt; stroke-dashoffset: 0; stroke-linejoin: miter; stroke-miterlimit: 4; fill: rgb(255,255,255); fill-rule: nonzero; opacity: 1;" vector-effect="non-scaling-stroke"  transform=" translate(-104.48, -8.43)" d="M 113.411208 2.14545823 C 111.37455 2.14545823 109.309132 2.34499241 107.235856 2.73863291 C 101.81295 3.76101266 96.3044132 6.09604051 90.7506714 9.62948861 C 92.2677954 11.1262785 93.711279 12.8396962 95.0690511 14.7088203 C 100.71693 10.0220759 106.327947 6.55829873 111.918631 4.47651646 C 114.016454 3.69952405 116.106418 3.1148557 118.204241 2.73045063 C 116.691087 2.34564051 115.096109 2.14545823 113.411208 2.14545823" stroke-linecap="round" />
</g>
		<g transform="matrix(1 0 0 1 13.69 -77.08)"  >
<path style="stroke: none; stroke-width: 1; stroke-dasharray: none; stroke-linecap: butt; stroke-dashoffset: 0; stroke-linejoin: miter; stroke-miterlimit: 4; fill: rgb(255,255,255); fill-rule: nonzero; opacity: 1;" vector-effect="non-scaling-stroke"  transform=" translate(-140.93, -44.44)" d="M 156.93137 86.6867038 C 159.168373 84.9079089 161.409507 82.9405975 163.654692 80.793762 C 154.342611 52.8981873 151.009588 2.18669367 124.022003 2.18669367 C 122.091714 2.18669367 120.145061 2.36662278 118.202459 2.72648101 C 142.785264 8.84066835 145.934307 62.3249013 156.93137 86.6867038" stroke-linecap="round" />
</g>
		<g transform="matrix(1 0 0 1 -8.52 -119.08)"  >
<path style="stroke: none; stroke-width: 1; stroke-dasharray: none; stroke-linecap: butt; stroke-dashoffset: 0; stroke-linejoin: miter; stroke-miterlimit: 4; fill: rgb(255,255,255); fill-rule: nonzero; opacity: 1;" vector-effect="non-scaling-stroke"  transform=" translate(-118.72, -2.44)" d="M 118.203269 2.72842532 C 116.690114 2.34402025 115.095218 2.14383797 113.410236 2.14383797 L 124.022894 2.18272405 C 122.092525 2.18272405 120.145871 2.36265316 118.203269 2.72680506" stroke-linecap="round" />
</g>
		<g transform="matrix(1 0 0 1 23.51 -27.5)"  >
<path style="stroke: none; stroke-width: 1; stroke-dasharray: none; stroke-linecap: butt; stroke-dashoffset: 0; stroke-linejoin: miter; stroke-miterlimit: 4; fill: rgb(255,255,255); fill-rule: nonzero; opacity: 1;" vector-effect="non-scaling-stroke"  transform=" translate(-150.75, -94.02)" d="M 156.460038 92.6127797 C 155.40493 91.6067646 154.403127 90.502562 153.417365 89.324719 C 148.877821 92.5391392 144.354722 94.9765671 139.860383 96.563362 C 141.459249 97.3446481 143.135968 97.9254278 144.915168 98.2852861 C 146.293193 98.566643 147.720636 98.7106025 149.221395 98.7106025 C 154.264028 98.7106025 158.251309 98.1135392 161.645659 96.4858329 C 159.776859 95.4755241 158.063198 94.1668456 156.460038 92.6127797" stroke-linecap="round" />
</g>
		<g transform="matrix(1 0 0 1 7.18 -75.49)"  >
<path style="stroke: none; stroke-width: 1; stroke-dasharray: none; stroke-linecap: butt; stroke-dashoffset: 0; stroke-linejoin: miter; stroke-miterlimit: 4; fill: rgb(255,255,255); fill-rule: nonzero; opacity: 1;" vector-effect="non-scaling-stroke"  transform=" translate(-134.42, -46.03)" d="M 111.916687 4.48113418 C 133.93536 15.9974886 135.849284 68.1485772 153.418337 89.324719 L 153.418337 89.324719 C 154.59618 88.4946633 155.761709 87.6152709 156.927238 86.6867038 L 156.927238 86.6867038 C 145.930256 62.3249013 142.785264 8.83637468 118.20659 2.72648101 L 118.20659 2.72648101 C 116.108606 3.11906835 114.014671 3.70017215 111.916687 4.48113418" stroke-linecap="round" />
</g>
		<g transform="matrix(1 0 0 1 -3 -71)"  >
<path style="stroke: none; stroke-width: 1; stroke-dasharray: none; stroke-linecap: butt; stroke-dashoffset: 0; stroke-linejoin: miter; stroke-miterlimit: 4; fill: rgb(255,255,255); fill-rule: nonzero; opacity: 1;" vector-effect="non-scaling-stroke"  transform=" translate(-124.24, -50.52)" d="M 95.0674309 14.7091443 C 111.949416 37.8279696 117.993932 85.8485468 139.861193 96.563362 L 139.861193 96.563362 C 144.355694 94.9765671 148.878874 92.5391392 153.418337 89.324719 L 153.418337 89.324719 C 135.849284 68.1485772 133.93536 15.9974886 111.916687 4.48113418 L 111.916687 4.48113418 C 106.326165 6.55862278 100.715228 10.0224 95.0674309 14.7091443" stroke-linecap="round" />
</g>
		<g transform="matrix(1 0 0 1 -48.45 -92.85)"  >
<path style="stroke: none; stroke-width: 1; stroke-dasharray: none; stroke-linecap: butt; stroke-dashoffset: 0; stroke-linejoin: miter; stroke-miterlimit: 4; fill: rgb(255,255,255); fill-rule: nonzero; opacity: 1;" vector-effect="non-scaling-stroke"  transform=" translate(-78.79, -28.67)" d="M 77.698317 20.0135291 C 75.0522815 25.996881 72.3490511 33.8610228 69.0814056 44.1260557 C 75.5798359 34.9691949 82.0578511 27.0804253 88.4990056 20.6885266 C 87.6115929 17.9605873 86.658722 15.4455494 85.6322106 13.2041722 C 82.9984891 15.2204962 80.3442714 17.4903899 77.698317 20.0135291" stroke-linecap="round" />
</g>
		<g transform="matrix(1 0 0 1 -38.43 -105.43)"  >
<path style="stroke: none; stroke-width: 1; stroke-dasharray: none; stroke-linecap: butt; stroke-dashoffset: 0; stroke-linejoin: miter; stroke-miterlimit: 4; fill: rgb(255,255,255); fill-rule: nonzero; opacity: 1;" vector-effect="non-scaling-stroke"  transform=" translate(-88.81, -16.08)" d="M 87.9785803 11.4790076 C 87.2015068 12.0351595 86.4205448 12.6037873 85.6353701 13.2048203 C 86.6617195 15.4459544 87.6104587 17.9612354 88.4981144 20.6888506 C 89.6674511 19.5437367 90.8288486 18.4355646 91.9903271 17.376243 C 90.7431372 15.2332152 89.4180942 13.2538329 87.9785803 11.4790076" stroke-linecap="round" />
</g>
		<g transform="matrix(1 0 0 1 -35.71 -108.01)"  >
<path style="stroke: none; stroke-width: 1; stroke-dasharray: none; stroke-linecap: butt; stroke-dashoffset: 0; stroke-linejoin: miter; stroke-miterlimit: 4; fill: rgb(255,255,255); fill-rule: nonzero; opacity: 1;" vector-effect="non-scaling-stroke"  transform=" translate(-91.52, -13.5)" d="M 90.7506714 9.62948861 C 89.826398 10.214481 88.9064182 10.8317975 87.9779322 11.4779544 C 89.4174461 13.2528608 90.7424891 15.232243 91.9939727 17.3794835 C 93.0205651 16.4509975 94.0469144 15.5554835 95.0693752 14.7088203 C 93.711603 12.8400203 92.2681195 11.1262785 90.7506714 9.62948861" stroke-linecap="round" />
</g>
		<g transform="matrix(1 0 0 1 87.67 -72.18)"  >
<path style="stroke: none; stroke-width: 1; stroke-dasharray: none; stroke-linecap: butt; stroke-dashoffset: 0; stroke-linejoin: miter; stroke-miterlimit: 4; fill: rgb(255,255,255); fill-rule: nonzero; opacity: 1;" vector-effect="non-scaling-stroke"  transform=" translate(-214.91, -49.34)" d="M 240.936717 0.0112607595 C 228.483613 48.0357266 202.473527 86.6091747 180.667593 96.3343392 L 180.626276 96.3343392 C 180.229638 96.5142684 179.83697 96.6779139 179.448514 96.8371848 C 179.395046 96.8695899 179.346438 96.8736405 179.305203 96.8930835 C 179.190651 96.9392608 179.084363 96.9749063 178.969811 97.0206785 C 178.916342 97.0530835 178.867735 97.0636152 178.818722 97.0830582 C 178.634823 97.1486785 178.454732 97.2041722 178.274803 97.2761114 C 178.197031 97.3085165 178.123633 97.3287696 178.049669 97.3546937 C 177.967846 97.3870987 177.873628 97.4170734 177.779735 97.4430785 C 177.697993 97.4754835 177.612282 97.4989772 177.517983 97.5346228 C 177.440211 97.5670278 177.358388 97.5808 177.285071 97.6132051 C 177.125395 97.6593823 176.978519 97.6982684 176.818844 97.753843 C 176.753223 97.753843 176.692221 97.7894886 176.62255 97.8065013 C 176.524363 97.8389063 176.41378 97.8624 176.307492 97.8915646 C 176.23377 97.9239696 176.172687 97.9345013 176.094833 97.9507038 C 175.984251 97.9831089 175.861517 98.0130835 175.751259 98.0390886 C 175.604059 98.0714937 175.473223 98.1014684 175.334125 98.1307139 C 176.319725 98.4947848 177.346236 98.6786835 178.45457 98.6786835 C 199.131755 98.6786835 219.980363 61.6226835 254.476606 1.84741111e-13 L 240.931775 1.84741111e-13 L 240.936717 0.0112607595 Z" stroke-linecap="round" />
</g>
		<g transform="matrix(1 0 0 1 -91.05 -69.81)"  >
<path style="stroke: none; stroke-width: 1; stroke-dasharray: none; stroke-linecap: butt; stroke-dashoffset: 0; stroke-linejoin: miter; stroke-miterlimit: 4; fill: rgb(255,255,255); fill-rule: nonzero; opacity: 1;" vector-effect="non-scaling-stroke"  transform=" translate(-36.19, -51.71)" d="M 64.5910359 4.09437975 C 64.603998 4.09437975 64.6202005 4.06197468 64.6283018 4.06197468 C 64.6445043 4.06197468 64.6696182 4.06197468 64.6777195 4.02956962 L 64.7036435 4.02956962 C 64.8181144 3.99068354 64.9244841 3.94450633 65.0389549 3.90197468 C 65.0681195 3.90197468 65.0835119 3.90197468 65.1045752 3.86956962 C 65.1337397 3.86956962 65.1620942 3.83716456 65.1906106 3.83311392 C 65.3133448 3.79422785 65.435998 3.74805063 65.5505499 3.70551899 L 65.5699929 3.70551899 C 65.8441397 3.62377722 66.0975473 3.52234937 66.3633499 3.42748354 C 66.4006157 3.42748354 66.4370714 3.39507848 66.4817904 3.39507848 C 66.5923727 3.35943291 66.7069246 3.31973671 66.8212334 3.29365063 C 66.8747018 3.26124557 66.927603 3.26124557 66.9766157 3.24423291 C 67.0950562 3.20858734 67.2099322 3.16889114 67.3201904 3.14280506 C 67.3696081 3.14280506 67.4144081 3.1104 67.4510258 3.10715949 C 67.8313803 3.00249114 68.207603 2.9043038 68.5879575 2.81267848 C 68.6414258 2.81267848 68.6861448 2.78027342 68.7433397 2.77703291 C 68.853598 2.74462785 68.956079 2.72761519 69.0746005 2.71141266 C 69.1240182 2.67900759 69.1809701 2.67900759 69.2382461 2.66199494 C 69.3485043 2.62958987 69.4547929 2.62634937 69.5735575 2.59961519 L 69.6513296 2.59961519 C 69.8803524 2.55343797 70.1135068 2.5145519 70.3425296 2.47202025 L 70.4815473 2.47202025 C 70.5918056 2.43961519 70.6899929 2.43637468 70.8005752 2.41612152 C 70.8613347 2.41612152 70.9232284 2.38371646 70.9805043 2.38371646 C 71.0825803 2.38371646 71.1849803 2.35131139 71.2870562 2.33753924 C 71.3405246 2.33753924 71.3933448 2.33753924 71.4549144 2.30513418 C 71.6960081 2.27272911 71.9456081 2.25976709 72.1991777 2.23951392 C 71.4835119 2.17065316 70.7473499 2.12496203 69.9989549 2.12496203 C 46.7125792 2.12496203 14.6293792 45.3318481 0.176599494 101.286238 L 2.96164456 101.286238 C 7.58702177 93.0376101 11.7420962 85.2345519 15.5413711 77.9098734 C 25.6632223 38.2773468 46.2790805 11.2487696 64.5924942 4.08797975" stroke-linecap="round" />
</g>
		<g transform="matrix(1 0 0 1 -45.57 -106.74)"  >
<path style="stroke: none; stroke-width: 1; stroke-dasharray: none; stroke-linecap: butt; stroke-dashoffset: 0; stroke-linejoin: miter; stroke-miterlimit: 4; fill: rgb(255,255,255); fill-rule: nonzero; opacity: 1;" vector-effect="non-scaling-stroke"  transform=" translate(-81.67, -14.78)" d="M 77.69856 20.0135291 C 80.3446765 17.4903899 82.9987322 15.2204962 85.6324537 13.2044962 C 85.0314208 11.8876354 84.4098106 10.668881 83.7429954 9.55228354 C 81.6124435 12.1369114 79.6657904 15.5477063 77.69856 20.0135291" stroke-linecap="round" />
</g>
		<g transform="matrix(1 0 0 1 -45.11 -114.61)"  >
<path style="stroke: none; stroke-width: 1; stroke-dasharray: none; stroke-linecap: butt; stroke-dashoffset: 0; stroke-linejoin: miter; stroke-miterlimit: 4; fill: rgb(255,255,255); fill-rule: nonzero; opacity: 1;" vector-effect="non-scaling-stroke"  transform=" translate(-82.13, -6.91)" d="M 79.6115119 4.42191392 C 81.1328486 5.69786329 82.4945094 7.45243544 83.7420233 9.5545519 C 84.1346106 9.07195949 84.5314916 8.62606582 84.9444132 8.20893165 C 83.2146309 6.59362025 81.3455068 5.26857722 79.3170309 4.2707443 C 79.3988537 4.31611139 79.4805954 4.35256709 79.5656587 4.38853671 C 79.5656587 4.38853671 79.5980638 4.42094177 79.6118359 4.42094177" stroke-linecap="round" />
</g>
		<g transform="matrix(1 0 0 1 -87.17 -80.51)"  >
<path style="stroke: none; stroke-width: 1; stroke-dasharray: none; stroke-linecap: butt; stroke-dashoffset: 0; stroke-linejoin: miter; stroke-miterlimit: 4; fill: rgb(255,255,255); fill-rule: nonzero; opacity: 1;" vector-effect="non-scaling-stroke"  transform=" translate(-40.07, -41)" d="M 15.5403261 77.9146532 C 36.7737195 36.9976709 46.8342278 11.1020557 64.591441 4.09243544 L 64.591441 4.09243544 C 46.2821266 11.257762 25.6621772 38.2860152 15.5403261 77.9146532" stroke-linecap="round" />
</g>
		<g transform="matrix(1 0 0 1 -41.38 -110.81)"  >
<path style="stroke: none; stroke-width: 1; stroke-dasharray: none; stroke-linecap: butt; stroke-dashoffset: 0; stroke-linejoin: miter; stroke-miterlimit: 4; fill: rgb(255,255,255); fill-rule: nonzero; opacity: 1;" vector-effect="non-scaling-stroke"  transform=" translate(-85.86, -10.71)" d="M 84.9430359 8.20787848 C 84.5301954 8.62930633 84.1376081 9.07098734 83.7407271 9.55357975 C 84.4074613 10.6698532 85.0288284 11.884638 85.634398 13.2054684 C 86.4195727 12.6044354 87.2005347 12.0358076 87.9776081 11.4796557 C 87.016717 10.2936304 86.0024385 9.19364051 84.9430359 8.20787848" stroke-linecap="round" />
</g>
		<g transform="matrix(1 0 0 1 -80.96 -48.84)"  >
<path style="stroke: none; stroke-width: 1; stroke-dasharray: none; stroke-linecap: butt; stroke-dashoffset: 0; stroke-linejoin: miter; stroke-miterlimit: 4; fill: rgb(255,255,255); fill-rule: nonzero; opacity: 1;" vector-effect="non-scaling-stroke"  transform=" translate(-46.28, -72.67)" d="M 25.179601 101.107119 L 25.179601 101.107119 C 25.0487332 101.139524 24.9178653 101.139524 24.7951716 101.153296 L 24.7215311 101.153296 C 24.6109489 101.153296 24.4964375 101.185701 24.3943615 101.185701 L 24.3410552 101.185701 C 24.0753904 101.218106 23.8134927 101.218106 23.5599311 101.238359 L 23.4781408 101.238359 C 44.9691868 100.637003 54.7924739 89.8769823 59.6673296 74.2709468 C 63.3725246 62.4397772 66.415279 52.4731949 69.0817296 44.1100152 C 60.0804132 56.7797468 51.0381853 71.8826127 41.9469448 88.8015392 C 37.5628476 96.9562734 30.8967453 100.362775 25.1794309 101.091078" stroke-linecap="round" />
</g>
		<g transform="matrix(1 0 0 1 -75.8 -60.97)"  >
<path style="stroke: none; stroke-width: 1; stroke-dasharray: none; stroke-linecap: butt; stroke-dashoffset: 0; stroke-linejoin: miter; stroke-miterlimit: 4; fill: rgb(255,255,255); fill-rule: nonzero; opacity: 1;" vector-effect="non-scaling-stroke"  transform=" translate(-51.44, -60.55)" d="M 25.179601 101.098937 L 25.179601 101.098937 C 30.8969154 100.370633 37.5630258 96.9681013 41.9471149 88.8093975 L 41.9471149 88.8093975 C 51.0383473 71.8946835 60.0846258 56.7876051 69.07776 44.1178734 L 69.07776 44.1178734 C 72.3494562 33.8486278 75.0486359 25.9886987 77.698722 20.0053468 L 77.698722 20.0053468 C 59.7738613 37.0673418 41.7794349 65.4373266 25.179601 101.090754" stroke-linecap="round" />
</g>
		<g transform="matrix(1 0 0 1 -117.99 -31.91)"  >
<path style="stroke: none; stroke-width: 1; stroke-dasharray: none; stroke-linecap: butt; stroke-dashoffset: 0; stroke-linejoin: miter; stroke-miterlimit: 4; fill: rgb(255,255,255); fill-rule: nonzero; opacity: 1;" vector-effect="non-scaling-stroke"  transform=" translate(-9.25, -89.6)" d="M 15.5393134 77.9156253 C 11.7402005 85.2403038 7.58513418 93.043362 2.95958684 101.29199 L 11.0613225 101.29199 C 12.1328122 93.1002329 13.654157 85.2890734 15.5393134 77.9195139" stroke-linecap="round" />
</g>
		<g transform="matrix(1 0 0 1 -79.82 -69.72)"  >
<path style="stroke: none; stroke-width: 1; stroke-dasharray: none; stroke-linecap: butt; stroke-dashoffset: 0; stroke-linejoin: miter; stroke-miterlimit: 4; fill: rgb(255,255,255); fill-rule: nonzero; opacity: 1;" vector-effect="non-scaling-stroke"  transform=" translate(-47.42, -51.8)" d="M 71.4538613 2.32603544 C 71.388241 2.32603544 71.3393094 2.35844051 71.2821144 2.35844051 L 71.2821144 2.35844051 C 71.1839271 2.39084557 71.0815271 2.39084557 70.9794511 2.40137722 L 70.9794511 2.40137722 C 70.9186916 2.40137722 70.8610106 2.40137722 70.799522 2.43378228 L 70.799522 2.43378228 C 70.6889397 2.46618734 70.5868638 2.46942785 70.4804942 2.48968101 L 70.4804942 2.48968101 C 70.4310765 2.48968101 70.3823878 2.48968101 70.3414765 2.52208608 L 70.3414765 2.52208608 C 70.10816 2.56097215 69.8792992 2.60390886 69.6502765 2.64311899 L 69.6502765 2.64311899 L 69.5725043 2.64311899 L 69.5725043 2.64311899 C 69.4540638 2.67552405 69.3474511 2.69253671 69.2371929 2.70873924 L 69.2371929 2.70873924 C 69.1796739 2.7411443 69.122641 2.7411443 69.0693347 2.75410633 L 69.0693347 2.75410633 C 68.9590765 2.78651139 68.8484942 2.80028354 68.7422056 2.81972658 L 68.7422056 2.81972658 C 68.6846866 2.85213165 68.6401296 2.85213165 68.5867423 2.85537215 L 68.5867423 2.85537215 C 68.2064689 2.94699747 67.8301651 3.04518481 67.4498106 3.14985316 L 67.4498106 3.14985316 C 67.4093043 3.14985316 67.3680689 3.18225823 67.3189752 3.18873924 L 67.3189752 3.18873924 C 67.2045043 3.2211443 67.093922 3.25435949 66.9754815 3.29016709 L 66.9754815 3.29016709 C 66.9260638 3.32257215 66.8691119 3.32257215 66.8200182 3.33553418 L 66.8200182 3.33553418 C 66.7055473 3.36793924 66.5909954 3.40115443 66.4805752 3.43696203 L 66.4805752 3.43696203 C 66.4360182 3.43696203 66.3988334 3.46936709 66.357922 3.46936709 L 66.357922 3.46936709 C 66.0961701 3.56747342 65.8385499 3.66566076 65.5686157 3.74748354 L 65.5686157 3.74748354 L 65.5686157 3.74748354 L 65.5686157 3.74748354 C 65.4541448 3.78312911 65.3314106 3.82922532 65.2087575 3.87175696 L 65.2087575 3.87175696 C 65.1593397 3.90416203 65.1145397 3.91145316 65.0575878 3.93413671 L 65.0575878 3.93413671 C 64.9430359 3.96978228 64.8285651 4.01595949 64.7221954 4.05849114 L 64.7221954 4.05849114 C 64.6816891 4.0908962 64.6404537 4.09413671 64.6119372 4.11114937 L 64.6119372 4.11114937 C 46.8547646 11.1207696 36.7942562 37.0163848 15.5608628 77.9333671 L 15.5608628 77.9333671 C 13.6755362 85.3029266 12.1501003 93.1140861 11.0827099 101.305519 L 11.0827099 101.305519 L 12.2196253 101.305519 C 15.4218127 101.305519 16.3256223 101.273114 20.0103858 101.273114 L 20.0103858 101.273114 L 20.1985053 101.273114 L 20.7465154 101.273114 L 20.934643 101.273114 L 20.9879494 101.273114 L 21.1760689 101.273114 L 21.282398 101.273114 L 21.3560385 101.273114 L 21.5032628 101.273114 L 21.9613084 101.273114 L 22.4193458 101.273114 L 22.8037671 101.273114 L 22.9058511 101.273114 L 23.580638 101.273114 L 23.580638 101.273114 C 23.8341914 101.240709 24.0959352 101.240709 24.361762 101.220456 L 24.361762 101.220456 L 24.4108557 101.220456 L 24.4108557 101.220456 C 24.521438 101.220456 24.6316962 101.188051 24.7380253 101.188051 L 24.7380253 101.188051 L 24.8155544 101.188051 L 24.8155544 101.188051 C 24.9339868 101.188051 25.0691078 101.155646 25.1999757 101.141873 L 25.1999757 101.141873 C 41.7998177 65.4884456 59.7941954 37.1184608 77.7190562 20.0564658 L 77.7190562 20.0564658 C 79.6902562 15.590643 81.6328587 12.1798481 83.759522 9.59943291 L 83.759522 9.59943291 C 82.5162208 7.49739747 81.154398 5.7388557 79.6330613 4.46258228 L 79.6330613 4.46258228 C 79.6330613 4.46258228 79.5917448 4.46258228 79.5885043 4.43017722 L 79.5885043 4.43017722 C 79.5024689 4.39453165 79.4210511 4.35159494 79.3350157 4.3091443 L 79.3350157 4.3091443 C 79.2488992 4.26296709 79.1753397 4.22732152 79.0856587 4.18154937 L 79.0856587 4.18154937 C 79.0078866 4.1491443 78.9178815 4.10620759 78.8402714 4.06375696 L 78.8402714 4.06375696 C 78.7339828 4.0313519 78.6479473 3.98517468 78.5540537 3.94264304 L 78.5540537 3.94264304 C 78.4762815 3.91023797 78.4067727 3.87702278 78.3289195 3.84453671 L 78.3289195 3.84453671 C 78.1692435 3.78215696 78.0099727 3.71694177 77.858641 3.64824304 L 77.858641 3.64824304 C 77.7889701 3.61583797 77.7238359 3.59882532 77.6580537 3.57290127 L 77.6580537 3.57290127 C 77.5477954 3.53320506 77.4208486 3.48127595 77.3063777 3.43218228 L 77.3063777 3.43218228 C 77.2488587 3.39977722 77.1836435 3.3932962 77.1182663 3.36980253 L 77.1182663 3.36980253 C 76.9507322 3.3139038 76.7870056 3.25533165 76.6315423 3.20291646 L 76.6315423 3.20291646 L 76.5910359 3.20291646 L 76.5910359 3.20291646 C 76.4028435 3.14053671 76.2188638 3.09500759 76.0266208 3.04259241 L 76.0266208 3.04259241 C 75.9820638 3.01018734 75.944798 3.01018734 75.899998 3.00370633 L 75.899998 3.00370633 C 75.7321397 2.95752911 75.5849397 2.91208101 75.4255878 2.86954937 L 75.4255878 2.86954937 C 75.3850815 2.86954937 75.3478157 2.8371443 75.3153296 2.8371443 L 75.3153296 2.8371443 C 74.9309246 2.73571646 74.5342056 2.65397468 74.1334359 2.57871392 L 74.1334359 2.57871392 C 74.0921195 2.57871392 74.0516942 2.54630886 74.0107828 2.54630886 L 74.0107828 2.54630886 C 73.8390359 2.5139038 73.6713397 2.48392911 73.4995929 2.46448608 L 73.4995929 2.46448608 C 73.4582765 2.43208101 73.4339727 2.43208101 73.397517 2.43208101 L 73.397517 2.43208101 C 73.193041 2.39967595 72.9926157 2.37618228 72.7921904 2.35349873 L 72.7921904 2.35349873 L 72.6859018 2.35349873 L 72.6859018 2.35349873 C 72.5223372 2.32109367 72.3711676 2.31785316 72.2196739 2.30084051 L 72.2196739 2.30084051 C 71.9618916 2.33324557 71.7166663 2.34701772 71.4753296 2.36970127" stroke-linecap="round" />
</g>
		<g transform="matrix(1 0 0 1 71.17 -90.77)"  >
<path style="stroke: none; stroke-width: 1; stroke-dasharray: none; stroke-linecap: butt; stroke-dashoffset: 0; stroke-linejoin: miter; stroke-miterlimit: 4; fill: rgb(255,255,255); fill-rule: nonzero; opacity: 1;" vector-effect="non-scaling-stroke"  transform=" translate(-198.4, -30.75)" d="M 192.294449 26.5978329 C 188.208899 39.6846987 184.900342 50.4813367 182.021314 59.3640506 L 182.021314 59.3640506 C 193.230955 43.9379443 204.27298 24.5324152 214.787613 2.13792405 L 214.787613 2.13792405 C 202.522621 5.98999494 195.979228 14.8075747 192.294449 26.5978329" stroke-linecap="round" />
</g>
		<g transform="matrix(1 0 0 1 83.56 -73.35)"  >
<path style="stroke: none; stroke-width: 1; stroke-dasharray: none; stroke-linecap: butt; stroke-dashoffset: 0; stroke-linejoin: miter; stroke-miterlimit: 4; fill: rgb(255,255,255); fill-rule: nonzero; opacity: 1;" vector-effect="non-scaling-stroke"  transform=" translate(-210.8, -48.17)" d="M 182.377041 95.5164354 C 181.804525 95.8075949 181.232008 96.0847392 180.667593 96.3343392 C 202.473527 86.6091747 228.483613 48.0357266 240.936717 0.0112607595 L 238.413254 0.0112607595 C 209.802175 51.1193114 200.600514 85.3332253 182.377041 95.5164354" stroke-linecap="round" />
</g>
		<g transform="matrix(1 0 0 1 45.6 -46.22)"  >
<path style="stroke: none; stroke-width: 1; stroke-dasharray: none; stroke-linecap: butt; stroke-dashoffset: 0; stroke-linejoin: miter; stroke-miterlimit: 4; fill: rgb(255,255,255); fill-rule: nonzero; opacity: 1;" vector-effect="non-scaling-stroke"  transform=" translate(-172.84, -75.29)" d="M 168.138094 91.2226025 C 172.882033 85.4317367 176.74658 75.5881316 182.02253 59.3643747 C 175.936859 67.7235848 169.810925 74.9092456 163.680373 80.7695392 C 163.680373 80.8019443 163.680373 80.8019443 163.647968 80.8221975 C 164.985487 84.8300557 166.453436 88.3673924 168.126266 91.2219544" stroke-linecap="round" />
</g>
		<g transform="matrix(1 0 0 1 41.24 -26.55)"  >
<path style="stroke: none; stroke-width: 1; stroke-dasharray: none; stroke-linecap: butt; stroke-dashoffset: 0; stroke-linejoin: miter; stroke-miterlimit: 4; fill: rgb(255,255,255); fill-rule: nonzero; opacity: 1;" vector-effect="non-scaling-stroke"  transform=" translate(-168.48, -94.97)" d="M 168.138094 91.2226025 C 166.52254 93.1938835 164.813335 94.6948861 162.911482 95.8072709 C 162.494347 96.0494177 162.073325 96.2774684 161.643714 96.486157 C 163.651937 97.5697823 165.843654 98.2937924 168.297365 98.5839797 L 168.297365 98.5839797 C 168.65698 98.6196253 169.01295 98.6528405 169.385284 98.6788456 L 169.450904 98.6788456 C 169.61779 98.6788456 169.794479 98.6788456 169.974408 98.7112506 L 170.046509 98.7112506 L 170.582408 98.7112506 L 171.159218 98.7112506 L 171.339228 98.7112506 L 171.74818 98.7112506 C 171.813801 98.7112506 171.882256 98.7112506 171.947714 98.6788456 C 172.075309 98.6788456 172.209466 98.6788456 172.340302 98.6464405 L 172.386479 98.6464405 L 172.533679 98.6464405 C 172.667836 98.6464405 172.815036 98.6140354 172.958995 98.6002633 L 172.991401 98.6002633 C 173.034337 98.6002633 173.079704 98.5678582 173.122236 98.5678582 C 173.272757 98.5354532 173.429841 98.521681 173.576393 98.4989975 L 173.71055 98.4989975 C 173.877355 98.4665924 174.049831 98.4463392 174.221578 98.4139342 L 174.253983 98.4139342 L 174.303401 98.4139342 C 174.646975 98.3483139 174.982287 98.2830987 175.321568 98.1980354 C 172.507917 97.1673924 170.152312 94.7381468 168.123836 91.2783392" stroke-linecap="round" />
</g>
		<g transform="matrix(1 0 0 1 11.34 -23.88)"  >
<path style="stroke: none; stroke-width: 1; stroke-dasharray: none; stroke-linecap: butt; stroke-dashoffset: 0; stroke-linejoin: miter; stroke-miterlimit: 4; fill: rgb(255,255,255); fill-rule: nonzero; opacity: 1;" vector-effect="non-scaling-stroke"  transform=" translate(-138.58, -97.64)" d="M 127.936292 98.7112506 C 129.977163 98.7112506 132.038368 98.5117165 134.107674 98.1141873 C 136.021679 97.7667241 137.939573 97.2347139 139.861679 96.5640101 C 141.460869 97.3452962 143.137588 97.9260759 144.912494 98.2859342 C 146.290601 98.5672911 147.721932 98.7112506 149.223016 98.7112506 L 127.936292 98.7112506 L 127.936292 98.7112506 Z" stroke-linecap="round" />
</g>
		<g transform="matrix(1 0 0 1 32.66 -23.92)"  >
<path style="stroke: none; stroke-width: 1; stroke-dasharray: none; stroke-linecap: butt; stroke-dashoffset: 0; stroke-linejoin: miter; stroke-miterlimit: 4; fill: rgb(255,255,255); fill-rule: nonzero; opacity: 1;" vector-effect="non-scaling-stroke"  transform=" translate(-159.9, -97.6)" d="M 149.22334 98.7112506 C 154.26176 98.7112506 158.253254 98.1141873 161.643714 96.486481 C 163.651613 97.5701063 165.843654 98.2941165 168.297365 98.5846278 L 168.297365 98.5846278 C 168.657304 98.6202734 169.013274 98.6534886 169.385284 98.6794937 L 169.450904 98.6794937 C 169.61779 98.6794937 169.794479 98.6794937 169.974408 98.7118987 L 170.04975 98.7118987 L 170.585649 98.7118987 L 149.208919 98.7118987 L 149.22334 98.7112506 Z" stroke-linecap="round" />
</g>
		<g transform="matrix(1 0 0 1 47.29 -23.06)"  >
<path style="stroke: none; stroke-width: 1; stroke-dasharray: none; stroke-linecap: butt; stroke-dashoffset: 0; stroke-linejoin: miter; stroke-miterlimit: 4; fill: rgb(255,255,255); fill-rule: nonzero; opacity: 1;" vector-effect="non-scaling-stroke"  transform=" translate(-174.53, -98.46)" d="M 170.598368 98.7112506 L 171.179147 98.7112506 L 171.359076 98.7112506 L 171.76414 98.7112506 C 171.833001 98.7112506 171.898216 98.7112506 171.963674 98.6788456 C 172.091269 98.6788456 172.225426 98.6788456 172.360555 98.6464405 L 172.403492 98.6464405 L 172.554013 98.6464405 C 172.688089 98.6464405 172.83537 98.6140354 172.97536 98.6010734 L 173.011006 98.6010734 C 173.053942 98.6010734 173.096069 98.5686684 173.138601 98.5686684 C 173.289122 98.5362633 173.446206 98.5233013 173.592433 98.4998076 C 173.641851 98.4998076 173.680737 98.4998076 173.733071 98.4674025 C 173.899957 98.4349975 174.072676 98.4179848 174.244504 98.3856608 L 174.276909 98.3856608 L 174.326327 98.3856608 C 174.669902 98.3200405 175.005213 98.2547443 175.344494 98.169681 L 175.344494 98.169681 C 176.329932 98.5335089 177.356606 98.7177316 178.464697 98.7177316 L 170.604444 98.7501367 L 170.598368 98.7112506 Z" stroke-linecap="round" />
</g>
		<g transform="matrix(1 0 0 1 33.55 -32.88)"  >
<path style="stroke: none; stroke-width: 1; stroke-dasharray: none; stroke-linecap: butt; stroke-dashoffset: 0; stroke-linejoin: miter; stroke-miterlimit: 4; fill: rgb(255,255,255); fill-rule: nonzero; opacity: 1;" vector-effect="non-scaling-stroke"  transform=" translate(-160.79, -88.64)" d="M 163.661092 80.8228456 L 163.661092 80.7904405 C 161.415988 82.937357 159.174854 84.9046684 156.937689 86.6834633 C 155.768028 87.6119494 154.602661 88.4910987 153.424899 89.3214785 C 154.410337 90.4992405 155.412464 91.603443 156.467573 92.6095392 C 158.070732 94.163281 159.784069 95.4722835 161.653193 96.4822684 C 162.078509 96.2728506 162.503826 96.0444759 162.916747 95.8033823 C 164.822489 94.6909975 166.532018 93.190238 168.147573 91.219038 C 166.474742 88.3644759 165.006712 84.8267342 163.669274 80.818957" stroke-linecap="round" />
</g>
		<g transform="matrix(1 0 0 1 76.03 -72.45)"  >
<path style="stroke: none; stroke-width: 1; stroke-dasharray: none; stroke-linecap: butt; stroke-dashoffset: 0; stroke-linejoin: miter; stroke-miterlimit: 4; fill: rgb(255,255,255); fill-rule: nonzero; opacity: 1;" vector-effect="non-scaling-stroke"  transform=" translate(-203.26, -49.07)" d="M 230.422165 0.0112607595 L 219.813638 0.0112607595 L 218.758449 0.0112607595 L 218.758449 0.0112607595 L 217.760616 0.0112607595 L 217.760616 0.0112607595 L 217.72173 0.0112607595 C 217.034661 0.0436658228 216.368251 0.0671594937 215.709618 0.109448101 L 215.709618 0.109448101 C 215.398854 0.776263291 215.079826 1.44299747 214.77295 2.11370127 L 214.77295 2.11370127 C 204.258641 24.5081924 193.216616 43.9137215 182.006975 59.3398278 L 182.006975 59.3398278 C 176.735401 75.5632608 172.866641 85.4071899 168.122621 91.1981367 L 168.122621 91.1981367 C 170.151097 94.6579443 172.510833 97.0910785 175.316302 98.1217215 L 175.316302 98.1217215 C 175.398125 98.0893165 175.463502 98.0893165 175.537142 98.0723038 L 175.537142 98.0723038 L 175.582509 98.0723038 L 175.582509 98.0723038 C 175.631927 98.0723038 175.684585 98.0398987 175.737973 98.0398987 L 175.737973 98.0398987 C 175.852444 98.0074937 175.975178 97.9872405 176.089649 97.9515949 L 176.089649 97.9515949 C 176.16337 97.9191899 176.224454 97.9159494 176.298418 97.8924557 L 176.298418 97.8924557 C 176.404707 97.8600506 176.514965 97.836557 176.613152 97.8106329 L 176.613152 97.8106329 C 176.678773 97.7782278 176.743988 97.7676962 176.809446 97.7547342 L 176.809446 97.7547342 C 176.973011 97.7020759 177.120211 97.6631089 177.275674 97.6140152 L 177.275674 97.6140152 C 177.349395 97.5816101 177.427168 97.5548759 177.508909 97.5354329 L 177.508909 97.5354329 C 177.598914 97.5030278 177.688838 97.4795342 177.770661 97.4405671 L 177.770661 97.4405671 C 177.864879 97.408162 177.958773 97.3911494 178.040595 97.3555038 L 178.040595 97.3555038 C 178.114317 97.3230987 178.191765 97.3028456 178.261436 97.273681 L 178.261436 97.273681 C 178.445254 97.2080608 178.625426 97.1526481 178.809406 97.0806278 L 178.809406 97.0806278 C 178.858823 97.0806278 178.907593 97.0352608 178.960899 97.0247291 L 178.960899 97.0247291 C 179.071157 96.9785519 179.185709 96.9429063 179.296292 96.8938127 L 179.296292 96.8938127 C 179.336798 96.8614076 179.386216 96.8581671 179.439198 96.8411544 L 179.439198 96.8411544 C 179.823684 96.6808304 180.220322 96.5172658 180.617041 96.3383089 L 180.617041 96.3383089 L 180.658357 96.3383089 L 180.658357 96.3383089 C 181.222692 96.089681 181.795289 95.8105924 182.363755 95.5204051 L 182.363755 95.5204051 C 200.591279 85.3371949 209.793102 51.123281 238.40418 0.0152303797 L 238.40418 0.0152303797 L 230.413011 0.0152303797 L 230.422165 0.0112607595 Z" stroke-linecap="round" />
</g>
		<g transform="matrix(1 0 0 1 -47.67 -116.27)"  >
<path style="stroke: none; stroke-width: 1; stroke-dasharray: none; stroke-linecap: butt; stroke-dashoffset: 0; stroke-linejoin: miter; stroke-miterlimit: 4; fill: rgb(255,255,255); fill-rule: nonzero; opacity: 1;" vector-effect="non-scaling-stroke"  transform=" translate(-79.57, -5.24)" d="M 72.1990157 2.25701266 C 72.2443828 2.25701266 72.2850511 2.25701266 72.3298511 2.28941772 C 72.4401094 2.28941772 72.5506916 2.28941772 72.6611119 2.32506329 L 72.7716942 2.32506329 C 72.9719575 2.35746835 73.1724638 2.37448101 73.3769397 2.40364557 C 73.4142056 2.40364557 73.4466106 2.40364557 73.4790157 2.43605063 C 73.6465499 2.4684557 73.8184587 2.49518987 73.9902056 2.52111392 C 74.0274714 2.52111392 74.076322 2.55351899 74.1171524 2.55351899 C 74.5098208 2.63210127 74.9105904 2.71384304 75.2949954 2.81527089 C 75.3314511 2.81527089 75.368717 2.84767595 75.4013651 2.84767595 C 75.5649296 2.88656203 75.7121296 2.93597975 75.8756942 2.9817519 C 75.9251119 2.9817519 75.9614056 3.01415696 76.0066106 3.0214481 C 76.1989347 3.07086582 76.3787828 3.11963544 76.5668942 3.18177215 C 76.5749954 3.18177215 76.5863372 3.18177215 76.6082106 3.21417722 C 76.7674815 3.26278481 76.9311271 3.32540759 77.0989043 3.38098228 C 77.1645246 3.41338734 77.2255271 3.42715949 77.2870157 3.44336203 C 77.4015676 3.49277975 77.5285144 3.54146835 77.6387727 3.58732152 C 77.7043929 3.58732152 77.7696081 3.63268861 77.8389549 3.65618228 C 77.9901246 3.72504304 78.1498005 3.78701772 78.3051828 3.85247595 C 78.3870056 3.88488101 78.4563524 3.92133671 78.5342056 3.95058228 C 78.6242106 3.99675949 78.7181043 4.03896709 78.8162916 4.0716962 C 78.8980334 4.11058228 78.9880385 4.15343797 79.0655676 4.18940759 C 79.151603 4.23558481 79.2331018 4.27123038 79.3151676 4.31700253 C 81.3436435 5.31491646 83.2126056 6.64417215 84.9425499 8.25551392 C 85.5805246 7.58481013 86.2470967 6.98345316 86.9382967 6.44366582 C 83.1553296 3.76085063 78.8694359 2.23133165 73.9250714 2.23133165 C 73.3524739 2.23133165 72.7799575 2.26373671 72.1992587 2.30667342" stroke-linecap="round" />
</g>
		<g transform="matrix(1 0 0 1 -39.39 -112.58)"  >
<path style="stroke: none; stroke-width: 1; stroke-dasharray: none; stroke-linecap: butt; stroke-dashoffset: 0; stroke-linejoin: miter; stroke-miterlimit: 4; fill: rgb(255,255,255); fill-rule: nonzero; opacity: 1;" vector-effect="non-scaling-stroke"  transform=" translate(-87.85, -8.94)" d="M 84.943117 8.20787848 C 86.0023575 9.19331646 87.0165549 10.2936304 87.9776081 11.4796557 C 88.9059322 10.8334987 89.8261549 10.2118076 90.7504284 9.63110886 C 89.5398562 8.42053671 88.2639068 7.33269873 86.9347322 6.39603038 C 86.2436132 6.93192911 85.5810916 7.53717468 84.943117 8.20787848" stroke-linecap="round" />
</g>
		<g transform="matrix(1 0 0 -1 -41.01 -117.25)"  >
<path style="stroke: none; stroke-width: 1; stroke-dasharray: none; stroke-linecap: butt; stroke-dashoffset: 0; stroke-linejoin: miter; stroke-miterlimit: 4; fill: rgb(255,255,255); fill-rule: nonzero; opacity: 1;" vector-effect="non-scaling-stroke"  transform=" translate(-86.23, -4.27)" d="M 72.1980425 6.28463137 C 72.778771 6.33370702 73.3513202 6.3541552 73.9238694 6.3541552 C 78.8682407 6.3541552 83.1541803 4.82463093 86.9370947 2.14591862 C 90.9285805 5.29493919 95.7543523 6.39505157 102.457267 6.39505157 L 69.9978178 6.39505157 C 70.7462214 6.39505157 71.4782664 6.35006557 72.1980425 6.28463137" stroke-linecap="round" />
</g>
		<g transform="matrix(1 0 0 -1 -27.07 -115.63)"  >
<path style="stroke: none; stroke-width: 1; stroke-dasharray: none; stroke-linecap: butt; stroke-dashoffset: 0; stroke-linejoin: miter; stroke-miterlimit: 4; fill: rgb(255,255,255); fill-rule: nonzero; opacity: 1;" vector-effect="non-scaling-stroke"  transform=" translate(-100.17, -5.89)" d="M 102.457267 9.62995452 C 95.7543523 9.62995452 90.9285805 8.52984214 86.9370947 5.38082157 C 88.2621371 4.44429467 89.5381039 3.35645121 90.7486364 2.14591862 C 96.3064533 5.67936508 101.811105 8.0186375 107.238053 9.04104678 C 109.30741 9.4295623 111.372676 9.62995452 113.409316 9.62995452 L 102.457267 9.62995452 L 102.457267 9.62995452 Z" stroke-linecap="round" />
</g>
		<g transform="matrix(1 0 0 1 62.47 -81.07)"  >
<path style="stroke: none; stroke-width: 1; stroke-dasharray: none; stroke-linecap: butt; stroke-dashoffset: 0; stroke-linejoin: miter; stroke-miterlimit: 4; fill: rgb(255,255,255); fill-rule: nonzero; opacity: 1;" vector-effect="non-scaling-stroke"  transform=" translate(-189.71, -40.45)" d="M 182.021314 59.3722329 C 184.904474 50.4813367 188.204768 39.6889924 192.298499 26.5978329 C 195.987411 14.803362 202.51857 5.98610633 214.783319 2.13792405 C 215.107289 1.47929114 215.413193 0.800405063 215.728251 0.133670886 C 195.733841 1.33209114 186.389031 11.5028253 181.685922 26.5651848 C 173.461679 52.8614886 168.480454 69.907119 163.68337 80.7692152 C 169.809628 74.9128101 175.935887 67.7232608 182.021314 59.3722329" stroke-linecap="round" />
</g>
		<g transform="matrix(1 0 0 1 81.38 -26.71)"  >
<path style="stroke: none; stroke-width: 1; stroke-dasharray: none; stroke-linecap: butt; stroke-dashoffset: 0; stroke-linejoin: miter; stroke-miterlimit: 4; fill: rgb(255,255,255); fill-rule: nonzero; opacity: 1;" vector-effect="non-scaling-stroke"  transform=" translate(-208.62, -94.81)" d="M 211.354621 91.7061671 L 209.08894 91.7061671 L 209.08894 98.7485165 L 208.164666 98.7485165 L 208.164666 91.7061671 L 205.890884 91.7061671 L 205.890884 90.8680101 L 211.354621 90.8680101 L 211.354621 91.7061671 L 211.354621 91.7061671 Z" stroke-linecap="round" />
</g>
		<g transform="matrix(1 0 0 1 89.38 -26.71)"  >
<path style="stroke: none; stroke-width: 1; stroke-dasharray: none; stroke-linecap: butt; stroke-dashoffset: 0; stroke-linejoin: miter; stroke-miterlimit: 4; fill: rgb(255,255,255); fill-rule: nonzero; opacity: 1;" vector-effect="non-scaling-stroke"  transform=" translate(-216.62, -94.81)" d="M 220.631866 98.7472203 L 219.711887 98.7472203 L 219.711887 93.4552304 C 219.711887 93.0380962 219.744292 92.5270684 219.787228 91.9257114 L 219.787228 91.9257114 C 219.692282 92.2856506 219.61378 92.5352506 219.541841 92.6946025 L 216.859026 98.7472203 L 216.409163 98.7472203 L 213.718165 92.7397266 C 213.639583 92.5728405 213.561163 92.3020152 213.476099 91.9257114 L 213.443694 91.9257114 C 213.476099 92.243119 213.486631 92.7560911 213.486631 93.4677063 L 213.486631 98.7472203 L 212.603269 98.7472203 L 212.603269 90.8667139 L 213.821942 90.8667139 L 216.238793 96.3670684 C 216.421963 96.7803139 216.536514 97.0992608 216.594763 97.311919 L 216.630408 97.311919 C 216.790732 96.8784203 216.921568 96.5551797 217.010925 96.3425215 L 219.476788 90.8667139 L 220.638266 90.8667139 L 220.638266 98.7472203 L 220.631866 98.7472203 Z" stroke-linecap="round" />
</g>
</g>
</g>
</svg>